<?xml version="1.0" standalone="no"?>
<!DOCTYPE svg PUBLIC "-//W3C//DTD SVG 1.1//EN" "http://www.w3.org/Graphics/SVG/1.1/DTD/svg11.dtd" >
<svg xmlns="http://www.w3.org/2000/svg">
<metadata></metadata>
<defs>
<font id="puppybelliesmedium" horiz-adv-x="616" >
<font-face units-per-em="2048" ascent="1638" descent="-410" />
<missing-glyph horiz-adv-x="614" />
<glyph horiz-adv-x="2048" />
<glyph horiz-adv-x="2048" />
<glyph unicode="&#xd;" horiz-adv-x="681" />
<glyph unicode=" "  horiz-adv-x="614" />
<glyph unicode="&#x09;" horiz-adv-x="614" />
<glyph unicode="&#xa0;" horiz-adv-x="614" />
<glyph unicode="!" horiz-adv-x="614" d="M53 77.5q0 24.5 16.5 41t41 16.5t41 -16.5t16.5 -41t-16.5 -41t-41 -16.5t-41 16.5t-16.5 41zM94 240q-18 72 45 114q39 27 86 8q25 -10 54 -36l8 -11q51 51 98 49t66.5 -33.5t21.5 -66.5q4 -63 -35 -119q-47 -70 -129 -71q-33 0 -82 24q-43 25 -77 56q-45 43 -56 86z M184 0q0 25 16.5 41t41 16t41 -16t16.5 -41t-16.5 -41t-41 -16t-41 16t-16.5 41zM201 1413q0 25 16 41t41 16t41 -16t16 -41q0 -360 33 -915q2 -25 -14.5 -42.5t-40 -19.5t-40.5 14.5t-20 38.5q-33 559 -32 924zM348 10.5q0 24.5 16.5 41t41 16.5t41 -16.5t16.5 -41 t-16.5 -41t-41 -16.5t-41 16.5t-16.5 41zM438 110.5q0 24.5 16.5 41t41 16.5t41 -16.5t16.5 -41t-16.5 -41t-41 -16.5t-41 16.5t-16.5 41z" />
<glyph unicode="&#x22;" horiz-adv-x="620" d="M53 1401q-2 23 14.5 40t40 19t41 -14t19.5 -41q4 -80 4 -338q0 -25 -16.5 -41t-41 -16t-41 16t-16.5 41q0 254 -4 334zM463 1382q-2 25 14.5 42.5t40 19.5t41 -14t19.5 -39q6 -98 6 -322q0 -25 -16.5 -41t-41 -16t-41 16t-16.5 41q0 221 -6 313z" />
<glyph unicode="#" horiz-adv-x="1163" d="M22.5 441.5q-2.5 23.5 13 42t40.5 20.5q59 4 164 24l36 7q6 176 9 354q-104 6 -205 20q-23 4 -37 22.5t-11 42t21.5 38t42.5 12.5q92 -14 189 -20q-2 182 -9 368q0 25 15.5 42.5t40 17.5t42 -15.5t17.5 -40.5q6 -193 8 -379q170 -6 363 4q-6 205 4 357q2 23 19.5 39 t41 14t40 -19.5t14.5 -41.5q-10 -143 -4 -340q68 6 141 14q25 2 43 -12.5t20 -39t-12 -43t-39 -20.5q-78 -8 -149 -14q10 -258 10 -291v-49q61 -4 133 -10q23 -2 38 -20.5t13 -42t-20.5 -39t-42.5 -13.5q-66 6 -121 10q-4 -178 8 -268q2 -25 -12.5 -43t-38 -21.5t-42 11 t-22.5 37.5q-12 98 -8 293q-190 8 -350 -9q-18 -2 -39 -4q-6 -147 -16 -293q-2 -25 -19.5 -40t-42 -13t-40 19.5t-13.5 42.5q10 133 16 266l-12 -2q-113 -20 -176 -27q-23 -2 -41 13.5t-20.5 39zM391 553q12 0 23 2q168 16 362 8v37q0 39 -10 287q-195 -10 -367 -4 q-2 -166 -8 -330z" />
<glyph unicode="$" horiz-adv-x="952" d="M27 449q0 25 16 41t41 16t41 -16.5t16 -40.5q0 -143 79 -226.5t204 -103.5q-2 162 -10 588q-123 53 -187 116q-100 104 -98 283q2 174 109 270q70 61 168 74v164q0 25 16 41t40.5 16t41 -16.5t16.5 -40.5v-166q121 -20 214 -105.5t112 -214.5q2 -25 -12.5 -43t-38 -21 t-42 11.5t-22.5 36.5q-12 84 -70.5 142.5t-138.5 76.5q0 -215 6 -547q53 -20 85 -33.5t82 -42t83 -59.5t66 -78t53 -104q39 -119 21 -197q-25 -121 -132.5 -190.5t-246.5 -79.5q2 -188 2 -350q0 -25 -16.5 -41.5t-41 -16.5t-41 16.5t-16.5 41.5q0 164 -2 352 q-166 23 -281.5 136.5t-115.5 310.5zM244 1106q-2 -133 65 -203q37 -36 103 -69q-4 297 -4 501q-55 -12 -95 -45q-68 -61 -69 -184zM530 659q6 -373 9 -544q102 8 177 58t91 122q10 47 -19.5 136t-91.5 138t-166 90z" />
<glyph unicode="%" horiz-adv-x="1572" d="M43 1261.5q0 24.5 16.5 41t41 16.5t41 -16.5t16.5 -41t-16.5 -41t-41 -16.5t-41 16.5t-16.5 41zM113 938q-10 66 24 147q31 68 85 125.5t120 75.5q12 4 27 4q20 2 37 -12q18 -4 30 -16q4 -5 6 -9q43 -31 72 -75q49 -63 59 -138q14 -78 -20 -131q-41 -68 -127 -59 q-39 4 -74 35q-14 -25 -33 -39q-45 -35 -102 -21q-90 20 -104 113zM190 1400.5q0 24.5 16.5 41t41 16.5t41 -16.5t16.5 -41t-16.5 -41t-41 -16.5t-41 16.5t-16.5 41zM243 -16q-7 23 3 43q39 72 114 182q88 125 115 170l674 1087q12 20 34.5 26.5t43 -5.5t27 -34.5 t-6.5 -43.5l-674 -1092q-33 -51 -118 -174q-72 -104 -107 -170q-12 -20 -34.5 -27t-43 4t-27.5 34zM373 1409q0 25 16.5 41t41 16t40.5 -16t16 -41t-16 -41t-40.5 -16t-41 16t-16.5 41zM526 1310.5q0 24.5 16.5 41t41 16.5t41 -16.5t16.5 -41t-16.5 -41t-41 -16.5t-41 16.5 t-16.5 41zM987 204.5q0 24.5 16.5 41t41 16.5t41 -16.5t16.5 -41t-16.5 -41t-41 -16.5t-41 16.5t-16.5 41zM1004 428q-16 68 24 135q31 47 72 64q47 18 104 -9q25 -10 43 -28q31 29 68 37q43 12 82 -4.5t63 -59.5q57 -98 -24 -217q-51 -76 -131 -127q-14 -16 -36 -19t-40 9 q-2 2 -40 25.5t-68.5 46t-53.5 45.5q-49 49 -63 102zM1130 118.5q0 24.5 16.5 41t41 16.5t41 -16.5t16.5 -41t-16.5 -41t-41 -16.5t-41 16.5t-16.5 41zM1296 125q0 25 16.5 41t41 16t41 -16t16.5 -41t-16.5 -41t-41 -16t-41 16t-16.5 41zM1421 235.5q0 24.5 16.5 41t41 16.5 t41 -16.5t16.5 -41t-16.5 -41t-41 -16.5t-41 16.5t-16.5 41z" />
<glyph unicode="&#x26;" horiz-adv-x="942" d="M51 526q-8 66 55 119q41 33 111 62l16 6q-4 6 -10 14q-27 37 -18.5 77t29 67.5t49.5 50.5q59 45 141 66.5t183.5 1t178.5 -96.5q18 -16 18.5 -40t-16 -41t-40 -17t-39.5 16q-55 51 -126 65.5t-130.5 0t-100.5 -47.5q-35 -27 -33 -41q16 -20 89 -30q8 2 14 2q20 2 63 -2 q16 -2 25 -4q6 0 10 -2q10 -4 19 -11q20 -16 20 -41q2 -31 -22 -49l-25 -10q-4 -2 -8 -2h-6q-47 0 -86 4q-76 -12 -152 -43q-53 -20 -80 -43q-12 -12 -14 -18q4 -31 43 -52q45 -25 127 -32q74 -8 151.5 -1t116.5 21q137 45 201 123q16 18 39.5 20.5t42 -13t20.5 -39 t-12 -42.5q-86 -102 -254 -159q-53 -16 -142 -24.5t-173 -0.5q-104 10 -172 45q-92 51 -103 141zM205 -41q0 25 16.5 41t41 16t40.5 -16t16 -41t-16 -41t-40.5 -16t-41 16t-16.5 41zM205 1376.5q0 24.5 16.5 41t41 16.5t40.5 -16.5t16 -41t-16 -41t-40.5 -16.5t-41 16.5 t-16.5 41zM250 160q6 55 45 92t92 39q59 2 102 -41q35 31 79 34t79 -22q41 -31 48 -84t-21 -108q-61 -123 -164 -148q-57 -14 -110.5 12.5t-92.5 88.5l-14 20q-12 18 -19 29q-29 45 -24 88zM270 1151q-12 51 13 109q53 127 151 159q119 39 211 -84l14 -20q14 -16 23 -25 q31 -43 31 -86q0 -57 -37 -96t-88 -45q-60 -8 -109 31q-31 -33 -75 -39t-80 16q-43 27 -54 80zM332 1491q0 25 16.5 41t41 16t40.5 -16t16 -41t-16 -41t-40.5 -16t-41 16t-16.5 41zM340 -137.5q0 24.5 16.5 41t41 16.5t41 -16.5t16.5 -41t-16.5 -41t-41 -16.5t-41 16.5 t-16.5 41zM498 1501.5q0 24.5 16 41t41 16.5t41 -16.5t16 -41t-16 -41t-41 -16.5t-41 16.5t-16 41zM524 -135.5q0 24.5 16.5 41t41 16.5t41 -16.5t16.5 -41t-16.5 -41t-41 -16.5t-41 16.5t-16.5 41zM637 1386.5q0 24.5 16.5 41t41 16.5t41 -16.5t16.5 -41t-16.5 -41 t-41 -16.5t-41 16.5t-16.5 41zM641 -28.5q0 24.5 16.5 41t41 16.5t41 -16.5t16.5 -41t-16.5 -41t-41 -16.5t-41 16.5t-16.5 41z" />
<glyph unicode="'" horiz-adv-x="241" d="M55 1401q-2 25 14.5 42t40 19t41 -14t19.5 -39q4 -66 4 -381q0 -25 -16.5 -41t-41 -16t-41 16.5t-16.5 40.5q0 311 -4 373z" />
<glyph unicode="(" horiz-adv-x="473" d="M61 455q-4 272 91.5 533t279.5 466q16 16 40 18.5t41 -14t19 -40.5t-14 -42q-170 -186 -257 -426.5t-85 -494.5t90 -492q68 -180 140 -264q16 -16 14 -41t-19.5 -40t-42 -13t-39.5 20q-86 98 -159 297q-96 258 -99 533z" />
<glyph unicode=")" horiz-adv-x="395" d="M-66 -373.5q0 23.5 17 39.5q152 160 231.5 388.5t80.5 463t-73.5 464.5t-218.5 396q-16 16 -14 41t19.5 40.5t42 13t38.5 -20.5q156 -180 239 -431t82 -506t-89 -504t-256 -423q-16 -18 -40 -18t-41.5 16.5t-17.5 40z" />
<glyph unicode="*" horiz-adv-x="669" d="M55 1376.5q0 24.5 16.5 41t41 16.5t41 -16.5t16.5 -41t-16.5 -41t-41 -16.5t-41 16.5t-16.5 41zM121 1151q-12 51 12 109q53 127 152 159q119 39 211 -84l14 -20q14 -16 22 -25q31 -43 31 -86q0 -57 -37 -96t-88 -45q-59 -8 -108 31q-31 -33 -75 -39t-81 16 q-43 27 -53 80zM164 1499.5q0 24.5 16.5 40.5t41 16t41 -16t16.5 -40.5t-16.5 -41t-41 -16.5t-41 16.5t-16.5 41zM358 1507.5q0 24.5 16.5 41t41 16.5t41 -16.5t16.5 -41t-16.5 -41t-41 -16.5t-41 16.5t-16.5 41zM487 1386.5q0 24.5 16.5 41t41 16.5t41 -16.5t16.5 -41 t-16.5 -41t-41 -16.5t-41 16.5t-16.5 41z" />
<glyph unicode="+" horiz-adv-x="2101" d="M98 985q27 109 105 181.5t170 86.5q100 16 170 -43q74 -63 73 -188q0 -6 -2 -12q74 -2 596 -33q12 0 62 -8q27 -4 43 -2q8 0 14 2q-4 12 -4 20q-4 63 4 94q20 86 76.5 141.5t134.5 73.5q150 35 291 -63q127 -88 90 -236q-25 -98 -121 -196l-4 -4q23 -8 84 -39 q102 -49 136 -154.5t-11 -204.5q-27 -63 -71 -100t-111 -59q-141 -49 -234 -13q-78 35 -114 127q-16 39 -31 111q-66 4 -220.5 12t-268 13.5t-220.5 5.5q0 -20 -4 -35q-39 -152 -166 -238q-143 -96 -297 -20q-12 6 -32 26q-20 16 -39 37q-25 25 -39 45q-25 31 -29 56 q-20 92 7 175t93 138q-76 37 -112 102q-47 86 -19 201zM854 883q2 0 4 -2l2 2h-6z" />
<glyph unicode="," horiz-adv-x="403" d="M39 125q16 61 74.5 93t140.5 -3q39 -20 65 -78q63 -135 -10 -252q-57 -88 -184 -147q-23 -10 -45.5 -2t-31.5 29.5t-1 44t29 30.5q98 45 137 107q14 22 18 47q-96 -27 -151 12q-59 41 -41 119z" />
<glyph unicode="-" d="M14 506.5q2 23.5 19.5 40t42.5 14.5q72 -4 467 -4q25 0 41 -16.5t16 -41t-16.5 -41t-40.5 -16.5q-399 0 -475 4q-23 2 -39.5 19.5t-14.5 41z" />
<glyph unicode="." horiz-adv-x="212" d="M47 96.5q0 24.5 16.5 41t41 16.5t41 -16.5t16.5 -41t-16.5 -41t-41 -16.5t-41 16.5t-16.5 41z" />
<glyph unicode="/" horiz-adv-x="462" d="M25 45q90 735 354 1368q10 23 31.5 31t44 -1t31 -30.5t-0.5 -44.5q-258 -618 -346 -1335q-4 -25 -22.5 -39t-42 -11t-37.5 21t-12 41z" />
<glyph unicode="0" horiz-adv-x="958" d="M39 539q-8 150 22.5 305t85.5 276q74 160 154 232q89 77 195 67q29 29 65 11q4 -2 25 -15l28 -16l29 -15q18 -12 29 -20l24 -21q16 -12 28.5 -25t25.5 -30q74 -102 111.5 -273t34.5 -337t-38 -291q-61 -221 -162 -319q-150 -147 -368 -41q-141 68 -209 202 q-70 137 -80 310zM154 545q18 -315 223 -416q147 -70 239 21q78 78 132 266q31 115 32.5 267.5t-30.5 301.5q-31 147 -95 238q-25 35 -71 63q-19 -6 -37 2q-96 43 -170 -22q-61 -55 -127 -195q-49 -106 -78 -248q-27 -141 -18 -278z" />
<glyph unicode="1" horiz-adv-x="552" d="M68 986.5q2 23.5 18 39.5t158 186l96 117l31 37q8 8 12 14q4 2 7 5.5t5 5.5q12 6 25 8q63 6 88 -74q14 -39 16 -102q0 -41 -2 -99q0 -10 -1 -23.5t-1 -21.5v-12q6 -659 19 -1010q0 -25 -14.5 -42t-37 -17t-39 15.5t-16.5 39.5q-12 350 -18 1014l2 61q2 61 2 91 q-2 16 -2 28l-94 -110q-145 -178 -166 -197q-16 -16 -38 -14t-37 19.5t-13 41z" />
<glyph unicode="2" horiz-adv-x="952" d="M76 1036q20 139 137 231.5t262 112.5q94 14 181 -7t157 -90t90 -177q18 -113 -29 -209q-23 -45 -55.5 -85t-90.5 -95t-62 -60l-117 -116q-33 -35 -91.5 -102.5t-99.5 -125.5q-35 -49 -75 -123q-23 -41 -33 -67h4q43 -4 123 -4q41 0 89 1t85 3t45 2q162 2 258 6 q25 0 42 -15.5t17 -40t-15 -42t-40 -17.5q-98 -4 -262 -6q-6 0 -43 -2t-86 -3t-90 -1q-84 0 -135 4q-33 4 -54 8q-43 12 -57 45q-10 23 -4 56q4 16 12 41q14 37 43 88q45 80 82 133q45 63 107.5 135t93.5 104l119 121q18 16 68 64.5t76 78t44 64.5q31 63 16 139 q-18 104 -100 151.5t-197.5 31t-201.5 -85t-99 -162.5q-4 -23 -22 -37t-42 -11t-38 21t-12 43z" />
<glyph unicode="3" horiz-adv-x="935" d="M29 414q-2 23 12 41t37.5 21t42 -11t22.5 -39q18 -147 111.5 -223t218.5 -76t222.5 68.5t119.5 181.5q18 104 -60.5 212.5t-189.5 137.5h-16l-47 4q-33 4 -49 4q-12 2 -19 4h-8q-4 2 -8 2q-16 6 -29 23q-16 23 -10 51.5t35 40.5q14 8 37 8q20 2 26 2q90 29 137 70 q55 49 74 121.5t-10 140.5q-27 66 -87.5 97.5t-137.5 25.5q-80 -4 -148.5 -40t-101.5 -93q-12 -18 -36 -24.5t-43.5 6t-25.5 36t6 43.5q51 82 144.5 132.5t195.5 54.5q111 6 204 -41t136 -152q41 -104 15.5 -212.5t-107.5 -180.5q-20 -18 -41 -33q131 -57 217 -190t58 -271 q-31 -162 -162 -253t-291 -91q-166 0 -293 103.5t-151 298.5z" />
<glyph unicode="4" horiz-adv-x="976" d="M51 410q-33 82 41 241q53 111 170 287q66 98 199 281q111 152 133 184q10 39 51 43q23 2 41.5 -13t20.5 -40q6 -88 6 -226q-2 -178 0 -219q8 -332 12 -540q111 6 188 16q23 2 41.5 -12.5t21.5 -38t-11.5 -42t-38.5 -22.5q-80 -8 -201 -16q2 -123 2 -234q0 -25 -16.5 -41 t-41 -16t-41 16.5t-16.5 40.5q0 109 -2 226q-47 -2 -92 -2q-139 -4 -235 2q-123 10 -172 41q-35 23 -60 84zM158 451q10 -25 14 -27q25 -16 121 -25q88 -6 223 -2q45 0 94 2q-4 209 -12 545q-2 43 0 223v45l-45 -61q-127 -174 -197 -277q-109 -164 -159 -270 q-53 -117 -39 -153z" />
<glyph unicode="5" horiz-adv-x="1034" d="M57 406q-6 23 4.5 44t33 28t44 -3t29.5 -33q2 -8 12 -36l13 -37l8 -29q8 -20 14 -31l14 -24l19 -27q59 -68 146 -93.5t174 -6t162 68.5t119 133t36 181q-6 86 -51.5 150.5t-114 95t-152.5 37.5t-170 -21q-53 -16 -59 -19q-6 -4 -62 -45q0 -2 -2 -2q-2 -6 -14 -20 q-43 -55 -96 -33q-20 10 -31 31l-4 16v10q0 4 2 9v8l6 18l17 62q25 94 30 137q4 14 10.5 78.5t10.5 99.5q8 68 16 107q6 27 12 45q10 29 25 43q12 12 33 18q10 2 24 6q23 4 62 8q68 10 174 21q231 20 287 18q23 0 39 -17.5t16 -41t-17 -39.5t-42 -16q-47 2 -273 -19 q-104 -10 -168 -18q-35 -4 -53 -8q-2 -10 -6 -23q-6 -35 -15 -98q-4 -33 -11 -100.5t-9 -84.5q-6 -25 -16 -69h2q14 8 80 28q78 23 162.5 25t165.5 -20.5t146.5 -67.5t108.5 -123t51 -178q8 -106 -31.5 -201.5t-108 -162t-162 -106.5t-187.5 -44t-187.5 32.5t-160.5 116.5 q-14 16 -27 37l-20 37q-10 14 -19.5 39t-13.5 37t-12.5 38.5t-12.5 33.5z" />
<glyph unicode="6" horiz-adv-x="917" d="M63 489q-12 145 5.5 297t54.5 254q39 113 129 228q84 106 209 140t240.5 -21.5t168.5 -190.5q8 -23 -1 -44.5t-31.5 -29.5t-44 1t-29.5 32q-35 88 -112 126t-163 16.5t-147 -99.5q-80 -102 -113 -194q-25 -76 -41 -181q59 57 138 92q68 29 139.5 35t144 -16.5 t129.5 -77.5q68 -68 101.5 -167t29.5 -200.5t-39 -195.5q-57 -154 -183 -236t-296 -32q-70 20 -124 67t-86.5 113.5t-51 136.5t-27.5 147zM176 541q0 -20 2 -39q31 -317 207 -367q117 -35 206 22.5t134 176.5q43 115 25.5 240.5t-93.5 199.5q-53 53 -132 61.5t-152 -26.5 q-80 -33 -129 -95.5t-51 -133.5q-1 -23 -17 -39z" />
<glyph unicode="7" horiz-adv-x="899" d="M59 1352.5q0 23.5 17.5 40t42.5 16.5q82 -4 284.5 -1t282.5 1q72 0 92 -2q29 -2 47 -4q14 -4 25 -8q27 -10 37 -37q4 -8 4 -19v-14l-2 -4q-2 -4 -2 -8q-2 -2 -4 -6l-6 -13l-23 -37l-66 -106l-45 -74l-41 -65l-18 -29q-340 -594 -305 -934q2 -25 -13.5 -43t-39 -20t-42 13 t-20.5 38q-39 377 322 1003q0 2 104 172l51 82h-55q-82 2 -285.5 -1t-285.5 1q-23 0 -39.5 17.5t-16.5 41z" />
<glyph unicode="8" horiz-adv-x="1024" d="M53 360q-27 135 40 256t218 179q-86 51 -125 134t-28 175q18 154 153 244q135 92 332 43q135 -33 205 -127.5t67 -210.5q4 -10 0 -23v-6q-14 -141 -118 -236q117 -78 176 -206q33 -70 39 -144q6 -72 -19.5 -146.5t-89.5 -133.5q-121 -117 -389 -129q-182 -8 -307 89 t-154 242zM165.5 383q20.5 -104 112 -175t232.5 -65q223 10 315 97q61 59 70.5 139t-27.5 156q-29 61 -77 110t-107 74q-29 -10 -59 -17q-66 -10 -140 7q-61 0 -84 -7q-139 -35 -197.5 -125t-38 -194zM272 1090q-10 -78 39 -147t162 -89q55 10 109 6q182 39 219 182 q6 82 -39 148q-47 66 -148 90q-145 37 -237 -27q-92 -61 -105 -163z" />
<glyph unicode="9" horiz-adv-x="1024" d="M74 272q-6 23 5 43.5t34.5 26.5t44 -5t26.5 -36q37 -135 187 -158q70 -12 143.5 6.5t130.5 61.5q96 74 152.5 220.5t56.5 318.5v36q-35 -45 -80 -88q-174 -156 -358 -118q-166 33 -260 192q-43 72 -56 156q-14 84 3.5 169t82 161.5t168.5 125.5q84 41 176.5 36t171.5 -54 q175 -113 238 -373l4 -12q25 -111 25 -233q0 -190 -65.5 -362.5t-188.5 -264.5q-76 -57 -172 -82q-98 -25 -191 -10q-98 16 -174 77.5t-104 165.5zM205 987q4 -82 49 -158q70 -115 184 -137q129 -25 258 92q80 70 131 195q-55 207 -186 289q-115 74 -238 14 q-104 -51 -153 -132t-45 -163z" />
<glyph unicode=":" horiz-adv-x="256" d="M76 919.5q0 24.5 16.5 41t41 16.5t40.5 -16.5t16 -41t-16 -41t-40.5 -16.5t-41 16.5t-16.5 41zM80 100.5q0 24.5 16.5 41t41 16.5t41 -16.5t16.5 -41t-16.5 -41t-41 -16.5t-41 16.5t-16.5 41z" />
<glyph unicode=";" horiz-adv-x="342" d="M29 80q-18 53 16.5 96t89.5 49q63 6 103.5 -29.5t56.5 -89.5q27 -86 4 -167q-10 -41 -42 -82t-46 -54l-57 -49q-18 -14 -42 -12t-39.5 20.5t-13.5 42t21 39.5l51 43q16 14 33.5 37t24 43t6.5 49q-133 -27 -166 64zM100 915.5q0 24.5 16.5 41t41 16.5t41 -16.5t16.5 -41 t-16.5 -41t-41 -16.5t-41 16.5t-16.5 41z" />
<glyph unicode="&#x3c;" horiz-adv-x="1024" d="M47 729q0 12 4 23.5t8 15.5l4 6q4 2 9 6q2 2 6 4l8 4q8 4 23 11l65 30l113 48l237 94q76 31 201 92t219 121q20 12 43 7t36 -25.5t8 -43.5t-25 -37q-98 -61 -230.5 -124.5t-208.5 -94.5l-239 -96l-95 -41l3 -2l131 -63q379 -184 587 -328q18 -12 23.5 -36t-8 -43 t-37 -24.5t-43.5 9.5q-217 150 -572 319l-133 64l-73 39q-16 8 -27 14q-6 4 -10 6t-6 6l-9 8q-10 14 -12 31z" />
<glyph unicode="=" horiz-adv-x="1024" d="M70 472.5q0 23.5 14.5 38.5t32.5 15q127 -6 344 4q260 12 344 13q20 0 33.5 -16.5t13.5 -41t-13.5 -41t-33.5 -16.5q-82 0 -342 -12q-217 -10 -348 -4q-20 0 -32.5 18.5t-12.5 42zM84 695.5q2 23.5 17.5 39t35.5 13.5q102 -10 330 -11q233 0 340 -8q20 -2 33.5 -19.5 t11.5 -42t-16.5 -40t-34.5 -13.5q-102 8 -334 9q-240 0 -340 10q-18 2 -31.5 20.5t-11.5 42z" />
<glyph unicode="&#x3e;" horiz-adv-x="1005" d="M49 1061.5q-8 21.5 1 44t30.5 31t44.5 0.5l199 -88l231 -103q104 -45 199 -82q4 0 20 -6l41 -16q29 -10 49 -17l70 -26l22 -8l11 -5q2 0 4 -2q4 -2 6 -4q4 -4 8 -6q12 -12 14 -29q8 -33 -18 -61q-10 -12 -27 -25q-23 -16 -63 -38l-41 -23l-39 -20l-20 -11 q-203 -111 -646 -331q-23 -10 -45 -3t-32.5 28.5t-3 44t27.5 32.5q442 221 645 332q2 0 16.5 7t34.5 19l39 21h-2q-20 8 -48.5 18t-45 15.5t-18.5 7.5q-96 37 -201 82l-233 102l-199 88q-23 10 -31 31.5z" />
<glyph unicode="?" horiz-adv-x="905" d="M51 1159q27 129 144.5 216t259.5 106q94 14 180 -5.5t156.5 -85t93.5 -169.5q27 -115 -12 -203t-119 -170q-25 -27 -66 -66l-65 -63q-25 -23 -51.5 -57.5t-41.5 -67.5q-6 -14 -10 -26.5t-6 -26.5l-2 -25q-2 -8 -3 -32.5t-1 -34.5q-2 -25 -19.5 -41.5t-41 -14.5t-40 19.5 t-14.5 40.5q0 8 1 33.5t2 38t4 34t9.5 40.5t14.5 40q20 43 53 87t60.5 72.5t72.5 70.5t62 59q66 68 92.5 129t9.5 139q-23 100 -105.5 144t-197.5 28t-202 -81.5t-107 -151.5q-4 -23 -24.5 -36.5t-43 -8t-36 25.5t-7.5 43zM201 88q0 25 16 41t41 16t41 -16t16 -41t-16 -41 t-41 -16t-41 16t-16 41zM268 236q-18 72 45 114q39 27 86 8q25 -10 54 -36l8 -11q51 51 98 49t66.5 -33.5t21.5 -66.5q4 -63 -35 -119q-47 -70 -129 -71q-33 0 -82 24q-43 25 -77 56q-45 43 -56 86zM348 14.5q0 24.5 16.5 41t41 16.5t41 -16.5t16.5 -41t-16.5 -41t-41 -16.5 t-41 16.5t-16.5 41zM508 14.5q0 24.5 16.5 41t41 16.5t41 -16.5t16.5 -41t-16.5 -41t-41 -16.5t-41 16.5t-16.5 41zM629 104.5q0 24.5 16.5 41t41 16.5t40.5 -16.5t16 -41t-16 -41t-40.5 -16.5t-41 16.5t-16.5 41z" />
<glyph unicode="@" horiz-adv-x="1484" d="M79 439q7 220 124 417q98 166 246 299q145 133 313 168q137 29 272 -4q137 -35 242.5 -113t168 -203.5t54.5 -269.5q-4 -72 -29.5 -173t-68.5 -187q-18 -39 -40 -71t-52.5 -63.5t-65.5 -48t-78 -22.5t-90 14q-47 16 -89 57.5t-58 86.5q-23 59 -19 157l-2 -2 q-88 -137 -151 -194q-119 -115 -250 -101q-63 6 -108.5 44t-61.5 100q-39 137 35.5 289.5t199.5 250.5q139 106 269 97q92 -8 155 -76q18 2 35 -6q14 -8 22.5 -23.5t8.5 -36.5v-8q2 -14 2 -33l4 -10q14 -33 -12 -59q-2 -14 -8.5 -53t-8.5 -62q-27 -174 -4 -233 q8 -23 32 -46.5t46 -31.5q102 -37 186 135q37 76 60 166t26 151q10 147 -76.5 269.5t-229 177.5t-290.5 24q-141 -29 -269 -146.5t-218 -266.5q-102 -172 -107.5 -362.5t76.5 -334.5q82 -154 236 -237q156 -84 366 -66q74 6 160 45q84 39 135 74l150 107l26 20q20 14 44 11 t37.5 -22.5t10.5 -43t-22 -35.5l-45 -33q-35 -27 -46 -36t-46 -33.5t-51 -34.5l-54 -31q-33 -20 -54 -30.5t-54 -25t-59.5 -22.5t-58.5 -15t-64 -9q-242 -20 -428.5 80t-284.5 282q-96 172 -89 392zM449 362q16 -55 71 -61q78 -8 158 68q51 49 135 174q61 94 90 162 q21 42 33 77q-41 63 -105 70q-84 6 -186 -72q-106 -82 -164.5 -203.5t-31.5 -214.5z" />
<glyph unicode="A" horiz-adv-x="1163" d="M16 63q8 37 33 151t35 163l37 147q25 100 45 162l45 148q29 84 59.5 156.5t65.5 144.5q66 129 129 202q57 68 113 93q34 14 65 14q45 0 86 -29q80 -59 158 -254q57 -147 121 -391q35 -137 92 -386t78 -314q2 -9 2 -17q0 -15 -8 -29q-12 -20 -34 -27q-9 -3 -17 -3 q-13 0 -25 7q-20 11 -29 34q-18 61 -94 389q-151 -22 -313 -22q-212 0 -441 38l-92 -401q-5 -25 -25 -37q-14 -8 -30 -8q-8 0 -14 1q-24 5 -36 25q-8 14 -8 28q0 8 2 15zM248 565q213 -33 409 -33q149 0 289 19l-49 201q-61 233 -117 372q-63 160 -116 197q-11 7 -23 7 q-8 0 -18 -3q-31 -14 -70 -59q-55 -66 -115 -181q-108 -211 -190 -520z" />
<glyph unicode="B" horiz-adv-x="1212" d="M45 1024q0 182 33 244q39 76 170 112q104 31 244 33h22q122 0 227 -20q131 -27 185 -80q76 -77 76 -163q0 -32 -11 -65q-29 -90 -141 -178q-45 -35 -105 -71q12 0 24 1q53 0 103 -8q131 -18 211 -92.5t99 -181.5q4 -28 4 -56q0 -73 -30 -149q-42 -104 -134 -182 q-80 -66 -184 -106q-102 -38 -218 -50q-98 -10 -182 -10h-28q-94 2 -209 12q-9 0 -15 2l-49 4q-25 2 -39 20.5t-12 43.5q4 37 39 49q-39 203 -66 529q-14 189 -14 328v34zM160 1022v-33q0 -118 12 -276q2 4 8 6l10 4l3 2l4 2l16 4l59 21q96 33 166 61q231 98 342 184 q84 66 103 123q4 12 4 25q0 43 -43 86q-29 31 -125 49q-95 18 -201 18h-22q-127 -2 -215 -28q-84 -23 -101 -56q-20 -37 -20 -192zM178 621q29 -328 66 -496q95 -8 182 -7q118 0 222 14q179 24 300 126q70 57 100 133q23 57 23 110q0 17 -2 34q-12 70 -64.5 118.5 t-148.5 61.5q-32 8 -76 8q-14 0 -28 -1q-62 -3 -103 -8t-104.5 -18.5t-106.5 -23.5l-106 -29q-66 -18 -111 -29q-2 -2 -4 -2h-8q-14 -2 -29 9h-2z" />
<glyph unicode="C" horiz-adv-x="1306" d="M43 602q-4 36 -4 73q0 157 70 333q68 168 161 256q102 94 248 136q97 28 193 28q48 0 96 -7q152 -18 267.5 -106t156.5 -240q6 -23 -6.5 -43t-35 -26.5t-43 6t-26.5 35.5q-31 113 -118 179t-209 83q-37 5 -74 5l-168 -25q-121 -36 -203 -111q-76 -70 -133 -211 q-62 -154 -63 -288q0 -33 4 -65q20 -160 98 -274.5t199 -175.5q90 -44 189 -52l38 -2q80 0 162 26q100 32 195.5 120t166.5 223q12 20 35 27.5t43.5 -3.5t27.5 -34q3 -9 3 -18q0 -13 -6 -25q-82 -156 -195 -257q-114 -101 -234 -140q-100 -32 -201 -32q-21 0 -41 1 q-122 8 -235 63q-147 76 -242.5 214.5t-115.5 326.5z" />
<glyph unicode="D" horiz-adv-x="1249" d="M47 1356v6q1 21 13 37q14 18 36 22q66 9 134 9q173 0 362 -60q102 -33 200.5 -88t188.5 -135t153.5 -173t91.5 -210q16 -68 15 -136q0 -50 -8 -100q-47 -254 -324 -405q-225 -123 -493 -129h-29q-45 0 -100 4q-47 2 -82 8q-49 6 -72 21q-25 16 -33 53q-6 16 -8 45 q-4 39 -4 108q2 39 3 102.5t1 74.5q-3 116 -3 216q0 50 1 97v71q0 110 -4 236q-6 168 -29 301q-8 10 -10 25zM176 1313q18 -133 24 -302q5 -129 5 -238v-65q-1 -45 -1 -93q0 -95 3 -201q0 -12 -1 -77t-3 -106q0 -61 4 -96q0 -8 2 -14q6 -2 14 -2q29 -4 72 -8q45 -3 82 -2h35 q242 6 442 116q229 123 264 324q8 43 8 85q0 74 -25 148q-40 116 -123 207.5t-192 161.5q-106 72 -227 109q-175 54 -333 54q-25 0 -50 -1z" />
<glyph unicode="E" horiz-adv-x="1112" d="M53 614q-1 51 -1 101q0 119 6 233q10 162 26 232q14 70 33 98q23 41 78 76q47 35 176 55q102 18 247 27q124 7 219 8q142 0 218 -17q23 -4 36 -23.5t8 -44t-24.5 -37.5t-44.5 -7q-60 13 -175 13q-96 0 -230 -9q-135 -8 -236 -25q-106 -16 -133 -34q-31 -20 -41 -39 q-8 -14 -20 -66q-23 -96 -27 -354q397 0 637 22q25 2 43 -13t20 -38.5t-13 -43t-38 -21.5q-246 -23 -649 -23v-66q4 -184 22 -309q10 -63 25 -106q10 -35 18 -43q69 -64 250 -64q56 0 123 6q57 4 127 15.5t110 18.5t114.5 22.5t86.5 17.5q23 6 42.5 -7t24.5 -37q1 -7 1 -12 q0 -16 -9 -30q-13 -20 -38 -24q-8 -2 -83 -19.5t-118 -26.5l-114 -16q-74 -12 -134 -18q-67 -6 -126 -6q-233 0 -334 98q-31 27 -52 90q-14 49 -26 125q-18 131 -25 321z" />
<glyph unicode="F" horiz-adv-x="1017" d="M70 674q-3 92 -3 171q0 106 5 189q10 184 49 250q41 72 172 111q98 29 246 41q116 9 214 9q128 0 226 -15q23 -4 37 -24q11 -16 11 -33q0 -5 -1 -11q-4 -24 -23.5 -37.5t-44.5 -9.5q-88 15 -206 15q-92 0 -203 -9q-139 -10 -223 -37q-88 -27 -107 -57q-25 -45 -33 -201 q-4 -64 -4 -140v-52q51 6 108.5 12t100.5 10t108.5 7t99.5 4t109.5 4t102.5 3q25 0 42 -15t17 -39.5t-15 -42t-40 -17.5q-27 0 -106.5 -3t-111.5 -4t-99.5 -4.5t-108.5 -7.5l-98 -10q-57 -8 -107 -16v-37q14 -391 49 -602q4 -25 -10 -44q-13 -20 -37 -24q-5 -1 -10 -1 q-18 -1 -34 11q-20 14 -23 37q-35 219 -49 619z" />
<glyph unicode="G" horiz-adv-x="1431" d="M50 602q-4 37 -4 74q0 157 69 332q68 168 161 256q102 94 248 136q97 28 193 28q48 0 96 -7q152 -18 267.5 -106t156.5 -240q6 -23 -6 -43t-34.5 -26.5t-43 6t-27.5 35.5q-31 113 -117.5 179t-209.5 83q-37 5 -74 5l-168 -25q-121 -36 -203 -111q-76 -70 -133 -211 q-62 -154 -62 -288q0 -33 3 -65q20 -161 98 -275t199 -175q90 -45 187 -52q19 -2 38 -2q79 0 160 25q100 31 195.5 117t166.5 219q-14 2 -30 2q-84 -4 -211 -86q-20 -12 -43 -7t-36.5 25.5t-8 43t25.5 36.5q154 98 268 103h5q119 0 186 -90q55 -78 60 -208q1 -16 1 -32 q0 -113 -32 -223q-6 -23 -27 -35q-14 -8 -29 -8q-7 0 -15 2q-22 6 -34 26.5t-6 42.5q29 112 29 199q0 71 -19 125q-82 -143 -192.5 -236.5t-227.5 -128.5q-92 -26 -183 -26q-26 0 -53 2q-118 10 -226 63q-147 76 -242.5 214.5t-115.5 326.5z" />
<glyph unicode="H" horiz-adv-x="1093" d="M63 1202q-1 38 -1 72q0 75 6 123q2 23 20 38q16 13 36 13h6q24 -2 39 -20.5t13 -43.5q-5 -41 -5 -107q0 -33 1 -73q4 -147 4 -190q-2 -117 -2 -254q217 -67 427 -68q193 0 380 58q0 145 2 268q0 39 -4 184q-1 42 -1 77q0 71 5 118q3 23 21 38q16 13 36 13h6 q24 -2 39 -20.5t13 -43.5q-5 -41 -5 -107q0 -33 1 -73q4 -147 4 -190q-4 -33 -4 -200q0 -110 2 -282q4 -428 4 -483q0 -25 -16.5 -41t-41 -16t-41 16.5t-16.5 40.5q0 111 -2 312.5t-2 269.5q-189 -54 -383 -54q-209 0 -424 62q0 -72 2 -275.5t2 -314.5q0 -25 -16 -41 t-41 -16t-41 16.5t-16 40.5q0 55 -4 485q-2 168 -2 278q0 172 4 206q0 39 -5 184z" />
<glyph unicode="I" horiz-adv-x="184" d="M63 1202q-1 38 -1 72q0 75 6 123q2 23 20 38q16 13 36 13h6q24 -2 39 -20.5t13 -43.5q-5 -41 -5 -107q0 -33 1 -73q4 -147 4 -190q-4 -33 -4 -200q0 -110 2 -282q4 -428 4 -483q0 -25 -16 -41t-41 -16t-41 16.5t-16 40.5q0 55 -4 485q-2 168 -2 278q0 172 4 206 q0 39 -5 184z" />
<glyph unicode="J" horiz-adv-x="821" d="M35 379q-3 26 -3 52q0 78 23 157q6 23 27.5 34t44.5 5t34 -27.5t5 -44.5q-20 -67 -20 -127q0 -96 51 -176q78 -122 234 -122q12 0 24 1q121 6 166 57q47 57 65 211q11 89 11 213q0 62 -3 133q-4 88 -13 236.5t-13 254.5q-2 54 -2 96.5t2 74.5q2 25 20 40q15 13 36 13h6 q24 -2 39 -19t13 -42q-2 -31 -2 -71t2 -90q4 -101 13.5 -246.5t13.5 -241.5q3 -74 3 -140q0 -130 -11 -225q-23 -188 -94 -270q-76 -88 -244 -99q-14 -1 -28 -1q-104 0 -186 41q-93 46 -149 134q-53 84 -65 189z" />
<glyph unicode="K" horiz-adv-x="1087" d="M90 1405q2 25 20 41q16 14 37 14h5q24 -2 41.5 -19t15.5 -40q-12 -248 -12 -621q33 20 116 68q76 43 111 65q256 170 379 510q5 23 27 33q13 6 26 6q10 0 20 -3q24 -7 34 -28.5t1 -44.5q-117 -334 -354 -520q82 0 156 -22q137 -41 231 -154q96 -109 131 -282 q13 -61 13 -157q0 -88 -11 -206q-3 -23 -21 -38q-16 -13 -37 -13h-5q-24 2 -40 20.5t-13 42.5q10 123 10 207q0 75 -8 119q-61 283 -285 352q-57 18 -121 18q-49 -1 -102 -11q-123 -24 -246 -95q-2 -2 -4 -3t-3 -2t-5 -1q4 -229 16 -586q0 -25 -16.5 -42t-41 -17t-43 15.5 t-18.5 39.5q-17 456 -17 812q0 309 13 542z" />
<glyph unicode="L" horiz-adv-x="1021" d="M72 766q2 133 9 353t7 274q0 25 16.5 41t41 16t41 -16t16.5 -41q0 -53 -7.5 -273.5t-9.5 -355.5v-64q0 -170 9 -282q10 -158 36 -207q55 -109 312 -109q211 0 405 54q23 6 44 -6q20 -10 26 -34q2 -8 2 -16q0 -14 -8 -28q-12 -20 -35 -27q-204 -57 -419 -57h-15 q-326 2 -414 170q-37 70 -49 252q-8 119 -8 287v69z" />
<glyph unicode="M" horiz-adv-x="1306" d="M59 1315v5q-1 20 13 36q16 18 41 20h7q33 0 48 -33q43 43 94 66q43 22 95 22q21 1 43 -3q77 -12 139 -72q68 -68 106 -176q61 113 150 186q86 70 168 78q8 1 17 0q95 0 165 -84q137 -162 158 -643q4 -82 4 -173q0 -221 -21 -497q-2 -25 -19.5 -40t-42 -13t-40 19.5 t-13.5 41.5q21 271 21 488q0 90 -4 170q-18 444 -129 573q-38 43 -79 43h-7q-47 -4 -105 -51q-55 -47 -99 -114.5t-58 -119.5q-9 -38 -13 -78q-3 -31 -3 -75v-25q1 -60 1 -94v-33v-26q0 -25 -16 -41.5t-41 -16.5t-41 16.5t-16 41.5q0 102 -2 159.5t-13.5 144.5t-38 150.5 t-71.5 106.5q-43 43 -94 43q-27 0 -56 -12q-39 -18 -68.5 -53t-41.5 -78q-2 -10 -9 -19q55 -662 56 -1110q0 -25 -16.5 -41t-41 -16t-41 16t-16.5 41q0 481 -70 1270z" />
<glyph unicode="N" horiz-adv-x="1128" d="M86 1368v6q0 22 14 38q16 18 39 20t41.5 -13.5t20.5 -38.5q10 -102 14 -161q109 141 272 198q91 28 178 28h7q90 -1 178 -53.5t149 -148.5q117 -188 127 -590q1 -40 1 -81t-1 -83q-2 -92 -6 -152.5t-9 -154.5t-7 -127q-2 -25 -20 -41q-16 -14 -35 -14h-5 q-24 2 -40.5 19.5t-14.5 39.5l8 127q4 92 8.5 152.5t6.5 148.5q1 42 1 83t-1 81q-8 369 -111 531q-45 72 -109 110q-64 37 -130 38h-5q-64 0 -133 -21q-104 -37 -186 -123t-107 -193q21 -326 21 -648q0 -145 -4 -290q0 -23 -17.5 -39t-41 -16t-40 17.5t-16.5 41.5 q4 147 4 294q0 316 -20 636v8q-12 184 -31 371z" />
<glyph unicode="O" horiz-adv-x="1372" d="M168 563q-4 40 -4 79q0 151 54 307q68 196 204 333q133 135 311 164q40 7 77 7q138 0 234 -97q143 -74 225.5 -223.5t94.5 -327.5q2 -34 3 -68q0 -186 -75 -360q-86 -205 -266 -301q-135 -72 -270 -72q-50 0 -99 10q-223 43 -346 192.5t-143 356.5zM283 573 q16 -172 114 -290q98 -121 281 -158q37 -7 73 -7q109 0 222 60q143 76 217 249q62 144 62 304q0 33 -3 66q-10 143 -68.5 259t-156.5 179q-29 0 -45 22l-4 5q-51 23 -113 30q-39 6 -47 45q-8 1 -16 1q-23 0 -47 -5q-141 -25 -248 -133q-117 -119 -178 -291 q-46 -134 -47 -265q1 -36 4 -71z" />
<glyph unicode="P" horiz-adv-x="1036" d="M57 719q2 233 6 399q2 86 7 139q2 29 6 48q4 29 12 43q29 49 92 65q16 4 41 8q2 0 14.5 1t18.5 3q46 7 93 8q127 1 263 -53q188 -72 303 -198q112 -124 112 -249q0 -21 -3 -42q-27 -164 -248 -264q-102 -45 -270 -74q-121 -20 -224 -20q-56 0 -106 6q2 -360 6 -480 q0 -23 -15 -40t-39 -18h-3q-22 0 -38 14q-17 15 -19 40q-8 184 -9 664zM172 662q46 -6 97 -6q97 0 214 20q152 25 246 65q164 72 180 174q2 11 2 23q0 78 -82 168q-99 104 -259 166q-118 45 -225 45q-38 0 -75 -6l-32 -4q-18 -2 -29 -4q-15 -5 -21 -11v-4q-2 -14 -4 -39 q-4 -47 -6 -131q-4 -162 -6 -393v-63z" />
<glyph unicode="Q" horiz-adv-x="1300" d="M53 610q2 190 90 378t238 310q147 119 326 132q16 1 31 1q168 0 268 -120q137 -86 202 -244q61 -145 61 -308q0 -15 -1 -30q-8 -279 -158 -487q113 -84 193 -185q12 -16 12 -36v-5q-2 -24 -21 -38q-18 -13 -38 -13h-6q-23 2 -38 23q-72 90 -178 168q-80 -78 -176 -119 q-117 -47 -227 -47q-75 0 -148 22q-219 68 -325 230q-105 158 -105 360v8zM168 608v-8q0 -167 84 -293q86 -131 264 -184q57 -17 117 -17q87 0 180 37q66 27 123 76q-113 63 -209 76q-23 4 -37 22.5t-11 42t21.5 38t42.5 12.5q129 -18 271 -103q131 178 139 426v23 q0 130 -41 241q-45 121 -135 193q-29 2 -43 27l-6 6q-49 27 -107 41q-41 8 -45 49q-19 3 -40 3q-10 0 -21 -1q-141 -8 -260 -107q-129 -104 -207 -269t-80 -331z" />
<glyph unicode="R" horiz-adv-x="1218" d="M53 1073q2 86 10 141q8 68 27 101q27 41 94 67q55 20 135 31q87 13 180 13q77 0 160 -9q199 -20 318 -82q135 -73 135 -185q0 -24 -6 -50q-16 -72 -117 -142q-55 -41 -137 -75q-57 -25 -145 -52l6 -2q188 -45 309 -166.5t162 -283.5q23 -92 23 -193q0 -76 -13 -157 q-4 -23 -24 -37q-15 -11 -32 -12q-4 0 -10 2q-24 4 -38.5 23.5t-10.5 43.5q12 73 12 139q0 163 -71 291q-102 182 -336 240q-108 25 -217 25q-66 0 -133 -9q-8 0 -109 -18l-45 -6l-4 -2v-2q8 -156 23.5 -386.5t17.5 -253t-14.5 -40t-40 -19.5t-41 14t-19.5 41q-2 27 -16 252 q-16 229 -25 385q-8 192 -8 323v50zM168 1071v-53q0 -84 4 -193q264 49 414 90q147 41 221 74q68 29 117 64q63 45 71 75q2 8 2 16q0 49 -73 89q-98 53 -277 72q-73 7 -141 7q-89 0 -170 -12q-68 -10 -111 -26q-12 -4 -21 -9t-14 -8l-2 -4q-6 -10 -12 -53q-6 -49 -8 -129z " />
<glyph unicode="S" horiz-adv-x="1040" d="M47 500q0 23 17.5 39t41 16t40 -17.5t16.5 -41.5v-11q0 -120 86 -211q88 -96 227 -135q71 -21 138 -21q60 0 118 17q121 33 172 131q16 30 16 75q0 32 -8 71q-10 61 -42.5 110t-90 89t-114 68t-142.5 60q-209 84 -270 121q-145 88 -160 215q-2 20 -2 39q0 65 26 121 q34 72 97 115t140 66.5t159 27.5q14 0 28 1q100 1 194 -25q108 -28 200 -101q92 -74 129 -178q4 -10 4 -20q0 -13 -6 -25q-10 -22 -32.5 -28.5t-44.5 3.5t-28 33q-40 109 -164 170q-113 56 -249 56q-13 0 -27 -1q-150 -5 -236 -71q-75 -57 -74 -146q0 -12 1 -25 q8 -72 104 -129q53 -33 254 -112q70 -27 116 -47.5t111.5 -59.5t106.5 -78.5t77 -99t50 -129.5q9 -48 9 -89q0 -75 -29 -130q-39 -74 -104 -122q-64 -47 -141 -67q-73 -19 -150 -19h-8q-81 1 -159 24q-170 47 -286 171q-111 118 -111 283v17z" />
<glyph unicode="T" horiz-adv-x="1202" d="M81 1386q0 22 14 38q15 18 40 20q81 4 247 4q111 0 259 -2q111 -1 204 -1q186 0 298 5h5q20 0 35 -14q17 -16 19 -42v-5q0 -21 -14 -37q-16 -18 -41 -19q-109 -5 -271 -5q-81 0 -174 1q0 -813 -14 -1280q0 -23 -17.5 -39t-41 -16t-40 17.5t-16.5 41.5q14 465 15 1278 q-95 1 -177 1q-163 0 -272 -5q-23 -1 -40 15q-18 16 -18 44z" />
<glyph unicode="U" horiz-adv-x="1189" d="M55 788q0 111 16.5 326t18.5 285q0 23 17.5 39t41 16t40 -17t16.5 -42q-2 -72 -18.5 -289t-16.5 -318q0 -373 127 -540q84 -110 216 -134q36 -6 72 -7q94 0 183 45q125 59 190 180q43 80 68 168t33 164q5 46 5 103q0 37 -2 77q-5 104 -13.5 173.5t-22.5 188.5l-25 185 q-2 25 12.5 43t38.5 20h6q22 0 38 -12q18 -14 20 -39q6 -57 21 -176l24 -193q11 -74 15 -186q2 -39 1 -75q1 -67 -5 -123q-8 -85 -36 -185t-75 -186q-61 -111 -171 -185t-230 -96q-40 -7 -80 -7q-81 0 -164 29q-125 45 -209 158q-152 201 -152 610z" />
<glyph unicode="V" horiz-adv-x="1099" d="M33 1380q-2 9 -2 17q0 13 6 27q11 22 33 29q9 3 18 3q14 0 26 -6q22 -10 29 -33q51 -160 131 -481q82 -330 129 -471q2 -12 15 -49l24 -78l25 -76q25 -66 45 -104.5t33 -46.5q23 -16 33 -11q14 6 30 35q12 25 22.5 53.5t21 65.5t18.5 55q20 63 200 539q123 326 185 541 q6 23 27.5 34t43.5 5q23 -6 34 -28q7 -14 7 -29q0 -8 -2 -15q-63 -221 -186 -547l-203 -537q-2 -8 -13 -47t-24.5 -77.5t-29.5 -65.5q-35 -66 -84 -88q-26 -11 -53 -11q-43 0 -89 29q-39 25 -73 90q-25 47 -52 121q-12 35 -26 76l-25 82q-10 37 -14 47q-51 160 -131 481 q-82 330 -129 471z" />
<glyph unicode="W" horiz-adv-x="1384" d="M83 1074q5 186 28 282q6 23 25.5 35t43 6t35.5 -25.5t6 -44.5q-20 -82 -24 -254q-1 -34 -1 -69q0 -141 13 -304q16 -211 57 -354q43 -154 99 -196q25 -18 47 -15q27 4 57 39q68 72 131 246q53 150 78 301q-6 70 -6 119v37v45q0 31 4 45q4 12 10 20q19 26 46 26q5 0 11 -1 q25 -4 39 -25q6 -6 9 -14q16 -35 16 -97v-14q0 -59 -12 -141v-4q2 -20 10 -90q20 -174 92 -332q43 -94 92 -137q37 -31 76 -31q10 0 20 2q63 16 107 129q41 111 53 297q5 76 5 154.5t-5 158.5q-10 162 -26 248q-12 74 -62 217q-6 23 4 44.5t33 28.5q9 3 19 3q13 0 25 -6 q22 -10 30 -33q49 -152 65 -233q17 -92 27 -261q5 -87 5 -171q0 -80 -5 -158q-14 -203 -62 -330q-63 -170 -188 -199q-26 -7 -52 -7q-77 0 -145 61q-68 59 -120 174q-37 84 -66 188q-10 -27 -18 -53q-70 -195 -156 -287q-57 -59 -119 -71q-16 -3 -31 -3q-55 0 -108 39 q-86 66 -139 256q-43 154 -62 375q-12 152 -12 295q0 45 1 89z" />
<glyph unicode="X" horiz-adv-x="1112" d="M45 1383q1 25 19 41q16 15 36 14h6q24 -2 39 -19q199 -221 414 -551l416 539q14 18 37.5 21.5t41.5 -10.5q19 -14 22 -38q1 -4 1 -9q0 -19 -12 -34l-438 -571l202 -332l226 -362q14 -18 9 -42q-4 -24 -24 -37q-14 -9 -31 -9q-7 0 -13 1q-24 5 -35 25q-84 127 -230 363 l-178 293q-258 -354 -401 -650q-10 -24 -33 -30q-9 -3 -18 -2q-15 0 -27 6q-22 10 -28 32q-3 9 -3 19q0 13 6 25q154 317 438 704q-223 346 -428 571q-14 16 -14 37v5z" />
<glyph unicode="Y" horiz-adv-x="1077" d="M93 1434q7 22 29 32q12 7 26 7q9 0 18 -3q23 -7 33 -30q6 -12 39 -86l75 -168q43 -94 86 -174q78 -154 133 -232q29 -39 52 -57l4 6l51 76q57 86 147 233q178 295 232 398q12 20 34.5 27t43 -4t27.5 -33q3 -10 3 -19q0 -13 -6 -25q-55 -104 -237 -403q-88 -150 -148 -238 l-57 -82q-12 -16 -23 -26q-4 -4 -6 -8q0 -88 -2 -279.5t-2 -292.5q0 -25 -16.5 -41t-41 -16t-41 16.5t-16.5 40.5q0 100 2.5 288.5t2.5 276.5l-21 13q-33 27 -74 82q-61 86 -143 245q-41 80 -86 177l-78 168q-33 76 -37 88q-6 12 -6 24q0 9 3 19z" />
<glyph unicode="Z" horiz-adv-x="1169" d="M39 125q-1 10 -1 21q0 37 15 81q16 49 74 144q31 51 66 98l94 119l69 84l357 469q4 6 49 55q37 45 58.5 73.5t31.5 51.5h-57q-80 0 -222 -8q-66 -4 -155.5 -9.5t-148 -9.5t-79.5 -4q-25 0 -42 16.5t-17 41t16 42t39 17.5q20 0 79 4t149 8l153 11q145 8 228 8q51 0 82 -2 q18 -2 30 -4q25 -6 39 -21q29 -27 29 -67q0 -24 -10 -52q-14 -39 -54 -90q-27 -37 -63 -82q-41 -45 -45 -49l-357 -469l-73 -92q-55 -66 -87 -110t-61 -91q-51 -84 -65 -121q-10 -29 -6 -45q0 -8 10 -12q6 -4 41 -6q39 -4 102 -6q38 -1 83 -1q91 0 214 3q256 6 504 22 q25 2 42 -14t19 -41v-5q0 -21 -14 -37q-16 -17 -39 -19q-215 -14 -510 -23q-117 -4 -202 -4q-57 0 -99 2q-74 2 -112 6q-55 6 -82 19q-61 31 -72 98z" />
<glyph unicode="[" horiz-adv-x="532" d="M63 -162l5 111q4 166 4 184q0 92 -7.5 407.5t-1.5 485.5v59q0 55 3 93q2 57 8 94q10 59 37 84q23 20 82 37q37 10 98 20l96 17q57 8 68 10q23 4 43 -10.5t24 -37t-10 -43t-37 -24.5q-10 -2 -68.5 -10t-97.5 -15q-53 -10 -88 -18q-20 -6 -28 -10q-4 -8 -7 -21 q-4 -29 -6 -77q-2 -37 -2 -93v-59q-6 -170 1 -482.5t7 -406.5q0 -20 -4 -188l-4 -111v-14q12 -4 27 -6q41 -6 106 -7q66 2 201 17q25 2 43 -12.5t20.5 -39t-12 -43t-39.5 -20.5q-141 -14 -211 -16q-76 -2 -127 6q-76 12 -108 49q-4 6 -8 13.5t-4 9.5v4q-2 4 -3 8v2v2v4v10 v37z" />
<glyph unicode="\" horiz-adv-x="532" d="M23 1358q-6 23 6 43t35.5 25.5t44 -7t24.5 -37.5q41 -168 162 -613t172 -691q6 -25 -7.5 -44.5t-37 -24.5t-43 8.5t-23.5 35.5q-51 248 -173 691.5t-160 613.5z" />
<glyph unicode="]" horiz-adv-x="561" d="M14 1341.5q0 24.5 16.5 41t41.5 16.5q4 0 75.5 2t118.5 2q74 -2 119 -8q31 -6 51 -13q35 -14 49 -39q18 -27 27 -94q4 -53 4 -137q2 -135 -10 -369q-6 -111 -14 -256l-17 -241q-6 -96 -6 -135v-29v-53v-70v-96v-35q-2 -6 -2 -12v-6q-2 -4 -2 -7q-4 -14 -12 -22 q-25 -29 -86 -45q-39 -10 -101 -19q-37 -6 -96 -12t-74 -8q-23 -2 -42 11t-22 37t10 43t38 24q14 2 74.5 8t95.5 10q55 8 88 16l16 4v13v96v70v57v29q0 37 6 135l17 244q8 145 14 254q12 231 10 364q0 76 -4 125q-2 27 -6 39l-24 6q-37 4 -103 6q-47 0 -117.5 -2t-74.5 -2 q-25 0 -41.5 16.5t-16.5 41z" />
<glyph unicode="^" horiz-adv-x="833" d="M53 758q-8 23 0 43q55 125 142 299q55 113 92 172q23 39 41 59q10 16 20 25q20 16 41 20q43 6 86 -33q25 -25 55 -67q49 -70 113 -191q115 -223 152 -333q6 -23 -4.5 -44.5t-33 -28.5t-44 3t-29.5 33q-33 106 -143 319q-59 113 -103 176q-16 23 -30 39l-23 -37 q-35 -55 -88 -163q-84 -168 -137 -293q-10 -23 -33 -31t-44.5 1t-29.5 32z" />
<glyph unicode="_" horiz-adv-x="1101" d="M14 -229.5q0 24.5 16.5 41t41.5 16.5q102 0 292.5 4t346 4t293.5 -8q23 -2 39 -19.5t14 -41t-19.5 -40t-42.5 -14.5q-205 8 -307 8t-308 -4t-308 -4q-25 0 -41.5 16.5t-16.5 41z" />
<glyph unicode="`" horiz-adv-x="397" d="M46 1401.5q1 23.5 18.5 39t41 14.5t39.5 -17q47 -51 150 -152q18 -16 18 -39.5t-16 -41t-40 -17.5t-40 16q-109 102 -158 156q-14 18 -13 41.5z" />
<glyph unicode="a" horiz-adv-x="964" d="M39 319q2 150 110.5 264.5t260.5 164.5q81 29 175 29q13 -1 25 -1q108 -4 191 -53q-18 74 -45 121q-37 61 -115 92q-65 26 -145 26q-15 0 -31 -1q-94 -8 -172 -49.5t-111 -104.5q-10 -20 -33.5 -27.5t-44 3t-27.5 34t3 43.5q49 94 153.5 149.5t223.5 65.5q20 1 39 1 q102 0 194 -35q110 -42 164 -140q80 -137 88 -434q0 -86 -3 -234.5t-3 -197.5q0 -23 -16.5 -40.5t-40 -17.5t-41 16.5t-17.5 41.5v100q-78 -61 -181 -98t-204 -43q-20 -1 -39 -1q-140 0 -233 64q-125 85 -125 257v5zM154 319v-6q0 -111 75 -161q64 -44 166 -44q16 0 33 1 q125 6 238.5 63t158.5 135q2 90 2 156l-4 67v2q-45 92 -151 119q-43 12 -90 12q-66 0 -138 -24q-125 -41 -206.5 -129t-83.5 -191z" />
<glyph unicode="b" horiz-adv-x="1001" d="M53 1411v5q-1 20 13 36q16 18 40 20q3 0 6 1q20 1 36 -13q18 -16 20 -41q7 -71 7 -183q0 -44 -1 -95q-3 -142 -3 -215q0 -37 1 -56v-4q104 117 258 162q74 22 146 22q79 0 155 -26q154 -53 230 -272q39 -114 40 -221q1 -37 -5 -73q-18 -140 -88 -251t-175 -176 q-88 -55 -183 -67q-23 -3 -46 -4q-72 0 -146 30q-98 39 -176 129v-74q0 -25 -16 -41t-41 -16t-41 16t-16 41q0 305 -5 580q-4 10 -2 22l-4 219q0 31 2 277v64q0 122 -6 204zM178 637q2 -150 2 -307q2 -2 4 -6q47 -98 109.5 -159t128.5 -78q40 -10 78 -11q24 0 50 5 q64 11 122 48q84 51 139 139t71 204q4 31 4 62q0 87 -32 181q-59 166 -160 203q-53 20 -110 20q-26 0 -53 -4q-85 -14 -158.5 -53t-127 -104.5t-67.5 -139.5z" />
<glyph unicode="c" horiz-adv-x="1005" d="M72 547q27 158 125 286t231 183q87 32 171 32h17q92 -4 181.5 -63t154.5 -170q12 -20 6 -42.5t-26.5 -35t-43 -6t-34.5 26.5q-51 86 -119 131q-66 45 -131 45t-133 -25q-104 -43 -184 -146.5t-101 -236.5q-8 -48 -8 -91q0 -111 53 -193q74 -114 199 -142q37 -8 75 -9 q43 -1 88 11q83 20 164 96t132 199q10 20 31.5 29.5t43.5 0.5q20 -9 30 -31q5 -11 5 -22t-4 -22q-90 -217 -255 -310q-116 -66 -236 -66q-50 0 -101 12q-170 40 -268 192q-72 112 -72 258q0 52 9 109z" />
<glyph unicode="d" horiz-adv-x="970" d="M45 424v15q1 193 103 345q106 158 266 222q86 36 167 35q74 0 144 -29q63 -27 117 -78q0 23 2 192v63q0 121 -6 202q-2 23 13 41t39 20h5q21 0 37 -13q18 -15 20 -40q6 -83 6 -209v-66q-2 -238 -2 -268q8 -305 9 -817q0 -25 -16.5 -41t-41 -16t-41 16t-16.5 41v190 q-76 -98 -181.5 -155.5t-213.5 -67.5q-18 -1 -35 -1q-147 0 -248 91q-123 113 -127 328zM160 424q2 -164 90 -244q67 -60 167 -60q13 0 27 1q125 10 238 100t158 232q4 10 8 16q0 127 -2 240q-53 150 -166 196q-48 20 -99 20q-59 0 -124 -26q-127 -51 -213 -179 q-84 -125 -84 -288v-8z" />
<glyph unicode="e" horiz-adv-x="964" d="M52 432q-7 41 -8 85q0 118 52 257q35 98 111 170t167 102q62 21 131 21q31 0 63 -4q104 -14 192 -82q35 -25 73.5 -75t65.5 -103q32 -69 32 -124q0 -79 -65 -130q-23 -18 -69 -27q-33 -8 -84 -10q-52 -4 -119 -4q-45 0 -98 2q-201 4 -336 20q0 -8 -1 -15q-1 -135 67 -231 q70 -102 184 -147q83 -30 160 -29h29q91 6 163 64.5t94 157.5q4 25 24.5 37t43.5 7q24 -6 36 -26q8 -14 9 -28q0 -7 -2 -15q-25 -106 -91 -180q-65 -73 -149 -103q-79 -28 -166 -28h-12q-92 2 -180 37q-125 51 -209 149q-82 100 -108 252zM176 643q131 -14 322 -18 q51 -2 94 -2q65 0 113 4q45 2 71 8l21 4q18 15 18 43q0 29 -20 72t-51 80.5t-54 56.5q-90 61 -185 61t-180 -59t-122 -160q-17 -45 -27 -90z" />
<glyph unicode="f" horiz-adv-x="757" d="M-4 916q2 24 19 40.5t42 14.5q47 -4 105 -4q40 0 84 2q6 68 14 125q29 195 102 270q81 82 196 82q83 0 185 -43q23 -10 31 -31q4 -11 4 -21q0 -12 -5 -23q-9 -23 -30.5 -31.5t-44.5 -0.5q-77 33 -137 33q-71 0 -117 -47q-47 -49 -71 -207q-6 -47 -13 -102q133 6 199 6 q25 0 41 -16.5t16 -41t-16 -41t-41 -16.5q-63 0 -205 -6q-2 -66 -2 -143q2 -147 13.5 -383t11.5 -289q0 -25 -16.5 -41t-41 -16t-41 16t-16.5 41q0 53 -11 288.5t-13 383.5q0 74 2 139q-44 -2 -83 -2q-59 0 -108 4q-23 2 -39 20q-14 15 -14 35v5z" />
<glyph unicode="g" horiz-adv-x="1077" d="M82 453q-1 14 -1 27q0 119 48 232q53 126 152 214q100 92 225 120q45 11 92 11q85 0 178 -33q78 -31 125 -70q-2 33 -4 60q-2 25 14.5 42t40.5 19h5q20 0 35 -14q18 -16 20 -39q2 -37 6 -158q6 -117 12 -186q12 -135 18 -200q4 -49 4 -129q0 -29 -1 -62q-2 -123 -21 -217 q-72 -371 -401 -457q-63 -17 -130 -17q-65 0 -133 16q-137 32 -249 107q-18 12 -23.5 36t8 43.5t37 24.5t43.5 -9q94 -61 207 -88q59 -14 113 -14q51 0 98 12q260 68 318 368q12 59 16 127q-78 -102 -187.5 -162.5t-224.5 -66.5q-11 -1 -22 -1q-166 0 -283 113 q-125 119 -135 351zM197 457q8 -186 99 -273q85 -80 203 -80h17q129 8 247 101.5t161 247.5q2 8 8 16q-4 61 -17 197q-2 14 -2 30q-2 2 -2 6q-27 98 -57 138q-35 45 -119 78q-71 25 -135 25q-36 0 -70 -8q-94 -22 -174 -93q-78 -72 -120 -174q-39 -94 -39 -192v-19z" />
<glyph unicode="h" horiz-adv-x="946" d="M51 1417v6q-1 21 13 37q16 18 40 19h5q19 1 35 -13q18 -16 20 -41q16 -248 16 -575q201 188 363 207q16 2 32 2q162 0 259 -170q58 -100 86 -250q25 -135 25 -274v-31q-3 -154 -32 -297q-4 -25 -22.5 -38t-42 -8t-35.5 24.5t-6 41.5q27 137 27 287q0 66 -6 136 q-18 224 -90 350q-66 114 -165 113q-10 0 -20 -1q-150 -16 -367 -246q-2 -4 -6 -6q0 -82 -3 -310t-3 -351q0 -25 -15.5 -41.5t-40 -16.5t-40 16.5t-15.5 41.5q1 117 5 428q3 187 2 341q0 103 -1 191q-3 221 -18 428z" />
<glyph unicode="i" horiz-adv-x="550" d="M14 1423.5q0 24.5 16.5 41t41 16.5t41 -16.5t16.5 -41t-16.5 -41t-41 -16.5t-41 16.5t-16.5 41zM80 1171q-16 29 -16 60q0 61 63 127q37 37 82 60.5t84 23.5q18 0 41 -15q16 -8 35 -24l10 -6q53 -39 80 -68q39 -45 39 -91q0 -32 -19 -64q-23 -43 -65 -50q-5 -1 -10 -1 q-24 0 -56 16q-10 4 -29 12q-16 8 -22 12q-20 8 -29 6q-6 0 -28 -12q-31 -16 -45 -22q-33 -14 -60 -9q-37 8 -55 45zM145 1527.5q0 24.5 16.5 41t41 16.5t41 -16.5t16.5 -41t-16.5 -41t-41 -16.5t-41 16.5t-16.5 41zM223 1008q0 25 16.5 41t41 16t41 -16t16.5 -41 q0 -66 6 -486q3 -180 3 -295q0 -153 -5 -190q0 -25 -17.5 -40t-42 -15t-40 17t-15.5 42q5 39 5 191q0 114 -3 292q-6 416 -6 484zM309 1517.5q0 24.5 16.5 41t41 16.5t41 -16.5t16.5 -41t-16.5 -41t-41 -16.5t-41 16.5t-16.5 41zM434 1423.5q0 24.5 16.5 41t41 16.5 t41 -16.5t16.5 -41t-16.5 -41t-41 -16.5t-41 16.5t-16.5 41z" />
<glyph unicode="j" horiz-adv-x="497" d="M-180 -340q0 25 16.5 41t40.5 16q20 0 63.5 -1t61.5 -1t44 5.5t44 17.5q51 31 72 151q8 39 11 89.5t3 83t-2 98t-2 92.5q-6 510 -6 745q0 25 16.5 41.5t41 16.5t41 -16.5t16.5 -41.5q0 -236 6 -745q0 -20 2 -87t2 -103.5t-3 -92t-12 -100.5q-33 -170 -124 -229 q-31 -18 -74 -28.5t-70 -11.5h-21q-23 0 -57 1q-49 2 -53 2q-25 0 -41 16t-16 41zM-39 1423.5q0 24.5 16.5 41t41 16.5t41 -16.5t16.5 -41t-16.5 -41t-41 -16.5t-41 16.5t-16.5 41zM27 1171q-16 29 -16 60q0 61 63 127q37 37 82 60.5t84 23.5q18 0 41 -15q16 -8 34 -24 l11 -6q53 -39 80 -68q39 -45 39 -91q0 -32 -19 -64q-23 -43 -66 -50q-5 -1 -10 -1q-24 0 -55 16q-10 4 -29 12q-16 8 -22 12q-20 8 -29 6q-6 0 -29 -12q-31 -16 -45 -22q-33 -14 -59 -9q-37 8 -55 45zM92 1527.5q0 24.5 16.5 41t41 16.5t41 -16.5t16.5 -41t-16.5 -41 t-41 -16.5t-41 16.5t-16.5 41zM256 1517.5q0 24.5 16.5 41t41 16.5t41 -16.5t16.5 -41t-16.5 -41t-41 -16.5t-41 16.5t-16.5 41zM381 1423.5q0 24.5 16.5 41t41 16.5t41 -16.5t16.5 -41t-16.5 -41t-41 -16.5t-41 16.5t-16.5 41z" />
<glyph unicode="k" horiz-adv-x="839" d="M49 467q2 4 4 10q-1 115 -1 215q0 199 3 334q0 39 -4 184q-1 42 -1 77q0 71 5 118q3 23 21 38q16 13 36 13h6q24 -2 39 -20.5t13 -42.5q-5 -41 -5 -108q0 -33 1 -73q4 -147 4 -190q-3 -119 -3 -274q0 -78 1 -164l156 174q193 221 231 282q14 20 36.5 25.5t43 -8t25.5 -36 t-7 -42.5q-45 -70 -241 -295l-19 -22q12 2 27 4q41 5 77 5q82 0 140 -28q63 -31 106 -119q31 -63 54 -166q29 -127 41 -307v-6q0 -21 -14 -36q-16 -17 -40 -19h-5q-21 0 -37 13q-18 15 -19 40q-12 174 -39 291q-18 86 -45 141q-25 51 -51 66q-35 16 -91 16q-29 0 -63 -4 q-88 -12 -166 -47q-14 -6 -28 -14q-45 -47 -70 -70q2 -250 2 -365q0 -25 -16.5 -41t-41 -16t-41 16.5t-16.5 40.5q0 115 -2 365q-8 13 -8 29q0 8 2 16z" />
<glyph unicode="l" horiz-adv-x="200" d="M41 1192q-1 42 -1 77q0 71 5 117q3 22 21 38q16 14 36 14h6q24 -2 39 -20.5t13 -43.5q-5 -41 -5 -107q0 -33 1 -73q4 -147 4 -190q-4 -33 -4 -200q0 -110 2 -282q4 -428 4 -483q0 -25 -16.5 -41t-41 -16t-41 16t-16.5 41q0 55 -4 484q-2 172 -2 284q0 168 4 201 q0 39 -4 184z" />
<glyph unicode="m" horiz-adv-x="1302" d="M43 1001q1 25 19 41q16 15 39 14h3q24 -1 39 -18.5t15 -40.5q-2 -39 -2 -77q98 96 227 104q11 1 21 0q172 0 262 -184q74 98 190 147q80 35 149 35q90 0 162 -59q66 -55 97 -191q25 -102 28 -256q3 -37 3 -111q0 -61 -2 -148q-5 -191 -5 -194q0 -25 -16.5 -41t-41 -16 t-40.5 16.5t-16 40.5q0 3 4 173q2 85 2 153.5t-2 120.5q-4 145 -25 235q-23 98 -59 127q-41 34 -95 34q-44 0 -98 -23q-55 -25 -101 -66t-67 -82q-9 -20 -9 -65q0 -15 1 -33q8 -41 12 -88l8 -86q2 -39 3.5 -90t1.5 -78v-74v-55q0 -25 -16.5 -41t-41 -16t-41 16t-16.5 41 q-1 290 -17 409q-6 12 -6 25q0 4 -2 27q-2 10 -4 18q-27 135 -79 203q-48 62 -122 61h-14q-70 -4 -118 -38.5t-109 -112.5q-6 -8 -14 -13q-1 -51 0 -101q0 -304 20 -599q2 -25 -14 -42t-40 -19h-5q-21 0 -37 13q-18 15 -19 40q-20 289 -20 585q0 188 8 379z" />
<glyph unicode="n" horiz-adv-x="892" d="M51 999q3 25 21 41q17 15 39 14h3q24 -1 39 -18.5t15 -40.5q-2 -29 -2 -55q92 86 219 113q47 10 93 11q68 0 134 -23q110 -37 179 -144q94 -141 96 -432v-21q0 -175 -31 -409q-4 -25 -23.5 -39t-43 -11t-38 21.5t-12.5 44.5q31 224 31 392v20q-2 258 -76 371 q-46 72 -122 97q-44 15 -92 15q-34 0 -70 -8q-86 -18 -153 -74.5t-91 -132.5q-2 -6 -6 -14q-1 -47 0 -93q0 -302 22 -597q2 -25 -14 -42.5t-41 -19.5h-6q-21 -1 -37 13q-18 16 -21 40q-20 294 -20 595q0 192 8 386z" />
<glyph unicode="o" horiz-adv-x="1071" d="M47 524q8 184 125.5 338t312.5 195q12 8 25 8q20 1 40 1q181 0 305 -100q138 -112 177 -286q14 -62 14 -124q0 -109 -44 -216q-68 -168 -236 -258q-133 -72 -239 -72q-16 0 -31 2q-154 18 -260.5 96t-151.5 187q-38 93 -38 199q0 15 1 30zM160 518q-1 -12 -1 -25 q0 -136 83 -235q88 -111 266 -131l24 -2q77 0 179 55q133 74 188 206q36 87 36 177q0 46 -9 92q-23 92 -81.5 164t-144.5 107q-14 -4 -28 0q-12 2 -38 8t-36 8t-28 5q-14 2 -25 2h-7q-14 -1 -28 -3q-152 -33 -248 -155.5t-102 -272.5z" />
<glyph unicode="p" horiz-adv-x="1036" d="M66 801q-1 42 -1 77q0 71 5 117q2 23 20 39q16 13 36 13q3 0 6 -1q24 -2 39 -20t13 -43q-6 -51 -6 -115q119 147 307 174q34 5 68 5q122 0 233 -66q142 -84 207 -262q38 -102 38 -196q0 -89 -34 -171q-72 -168 -235 -260q-131 -74 -284 -78h-14q-145 0 -282 74 q4 -348 4 -440q0 -25 -16 -41.5t-41 -16.5t-41 16.5t-16 41.5q0 55 -4 484q-2 168 -2 278q0 173 4 206q0 39 -4 185zM182 229q111 -92 260 -99q13 -1 26 -1q133 0 239 64q84 47 136 117.5t69 164.5q4 27 4 55q0 70 -29 148q-53 141 -159 204q-85 51 -178 51q-24 0 -49 -3 q-120 -17 -209 -106t-106 -232q-2 -6 -2 -12q-3 -100 -3 -223q0 -61 1 -128z" />
<glyph unicode="q" horiz-adv-x="970" d="M70 365q-21 83 -21 161q0 101 34 196q60 169 193 261q86 57 182 71q26 5 53 5q71 0 145 -28q104 -38 194 -128q0 43 2 86q0 23 17.5 39t41 16t40 -17t16.5 -42q-1 -130 -1 -201v-57q1 -63 7 -258l8 -258q0 -41 2 -137l2 -150q2 -51 8 -129t17 -141v-6q0 -20 -12 -36 q-13 -20 -36 -23q-5 -1 -9 -1q-19 0 -35 12q-19 13 -23 38q-10 66 -15.5 147.5t-7.5 134.5t-4 151.5t-2 135.5q-115 -158 -293 -201q-50 -12 -98 -12q-112 0 -211 64q-141 92 -194 307zM180 393q43 -172 146 -237q71 -46 150 -46q34 0 71 9q121 27 210 132t97 253q0 6 2 12 q-2 96 -4 168l-25 55q-12 29 -24 43q-76 92 -162 131q-70 32 -131 32q-15 0 -28 -2q-74 -9 -140 -54q-104 -72 -152 -207q-27 -75 -27 -155q0 -65 17 -134z" />
<glyph unicode="r" horiz-adv-x="731" d="M31 59q16 162 15.5 397t-15.5 543v5q0 20 14 36q16 18 40 19.5t41 -15t19 -40.5l5 -101q57 72 132.5 115t153.5 43h6q92 -1 165 -61q75 -62 106 -181q2 -7 2 -15q-1 -15 -9 -28q-12 -20 -34.5 -26.5t-43 6t-26.5 35.5q-42 155 -157 155h-7q-55 0 -115.5 -39t-103.5 -106 q-18 -27 -28.5 -60.5t-14.5 -54t-12 -76.5q-2 -4 -2 -8q1 -64 1 -126q0 -236 -18 -429q-3 -23 -21 -38q-16 -13 -36 -13h-6q-24 2 -38 20q-13 16 -13 37v6z" />
<glyph unicode="s" horiz-adv-x="845" d="M43 389q-1 5 -1 10q0 17 12 33q14 20 36.5 24.5t43 -10t24.5 -36.5q29 -154 129 -246q45 -40 115 -60q47 -13 93 -13q24 0 48 3q72 12 119 51t57 103q1 8 1 18q0 20 -5 50q-8 46 -21 75q-31 78 -101.5 115t-189.5 63q-147 31 -186 47q-111 45 -129 138q-5 26 -5 50 q0 91 69 154q84 80 210 101q42 7 83 7l163 -26q123 -41 189 -143q12 -20 7 -43t-25.5 -36t-43.5 -7.5t-37 25.5q-41 68 -131 98q-57 19 -117 18q-34 0 -69 -6q-95 -14 -143 -62q-38 -38 -38 -84q0 -12 3 -26q4 -31 55 -51q33 -12 170 -43q61 -12 104 -25.5t100.5 -41 t100.5 -72.5t68 -105q15 -40 27 -104q8 -42 8 -74q0 -17 -2 -31q-20 -106 -96 -167.5t-177 -77.5q-34 -5 -68 -5q-61 0 -121 16q-96 25 -163 85q-63 57 -106.5 141t-59.5 170z" />
<glyph unicode="t" horiz-adv-x="686" d="M29 944.5q0 24.5 17 39.5t42 15q39 -1 81 -1t87 1q12 221 31 398q1 25 21 39q17 12 38 12h6q24 -2 37.5 -21.5t11.5 -42.5q-20 -172 -30 -380q49 2 196 12q25 2 42.5 -14.5t19.5 -40t-14.5 -41t-39.5 -19.5q-147 -10 -210 -12q-4 -90 -5 -172q0 -242 15 -367 q20 -160 59 -200q38 -42 104 -42q37 0 83 13q23 6 44 -5.5t27 -33.5q2 -8 2 -16q0 -14 -7 -28q-11 -22 -34 -28q-51 -14 -100 -16h-10q-45 0 -97 16q-58 18 -98 62q-61 70 -86 264q-16 135 -16 381q0 80 4 168q-45 -1 -86.5 -1t-79.5 1q-25 0 -40 17.5t-15 42z" />
<glyph unicode="u" horiz-adv-x="923" d="M51 614q10 141 49 387q4 23 24 37q15 11 31 12q5 0 11 -2q22 -4 36.5 -23t10.5 -44q-39 -248 -49 -375q-3 -54 -4 -102q0 -160 37 -248q41 -98 121 -129q41 -16 87 -16q43 0 91 14q98 27 183 97.5t120 156.5l4 8v25q0 242 -37 567q-2 23 12.5 42t38 21t43 -12t21.5 -39 q37 -318 37 -577q0 -204 -23 -371q-5 -23 -23 -37q-15 -12 -33 -12q-5 0 -9 1q-24 3 -38 21.5t-12 42.5q8 55 13 113q-115 -117 -267 -158q-69 -16 -134 -16q-16 0 -32 1q-80 5 -153.5 60.5t-114.5 151.5q-45 109 -45 293q0 52 4 110z" />
<glyph unicode="v" horiz-adv-x="929" d="M80 946q-2 9 -2 17q0 13 6 27q10 22 32.5 29t44 -3t29.5 -33l156 -485q61 -186 100 -293q23 -61 37 -94q8 12 17 28q10 23 19 47.5t18.5 52t13.5 35.5q23 66 123 328t145 408q9 23 29 34q12 7 25 7q9 1 17 -3q22 -8 34 -28q8 -13 8 -28q0 -7 -2 -15q-47 -147 -150 -412 l-123 -327q0 -2 -9 -33t-21.5 -61.5t-24.5 -55.5q-27 -53 -59 -80q-32 -26 -65 -26q-26 0 -54 16q-12 6 -23 20q-4 6 -8 15l-16 33l-39 100q-39 109 -100 295z" />
<glyph unicode="w" horiz-adv-x="1236" d="M102 256q-41 132 -41 283q0 206 76 448q9 23 29 34q13 7 25 7q7 0 17 -3q22 -7 34 -27.5t6 -43.5q-71 -225 -71 -414q0 -134 36 -251q31 -102 72 -146q41 -45 75.5 -45t79.5 44t84 145q12 31 19.5 60.5t15.5 79.5t12 69q-2 18 9 32q8 20 26.5 30.5t38.5 4.5 q23 -4 36 -24.5t7 -42.5q8 -27 17.5 -73t17.5 -78t22 -62q43 -99 93 -143q48 -43 91 -42h4q44 2 91 50.5t82 146.5q35 120 35 244q1 41 -3 83q-16 166 -79 328q-8 23 1 44q10 22 32 30q11 4 20 4q12 0 24 -5q22 -9 29 -32q45 -113 69 -233q21 -107 20 -224v-30 q-3 -133 -42 -246q-41 -123 -112.5 -196.5t-161.5 -77.5h-10q-84 0 -158 64q-78 68 -131 190q-2 6 -6 14l-2 -6q-47 -121 -117 -191.5t-154 -70.5q-88 0 -153.5 73.5t-104.5 198.5z" />
<glyph unicode="x" horiz-adv-x="876" d="M25 44v6q0 20 12 36l362 473l-319 406q-14 18 -11 41.5t21 37.5q15 12 34 13q4 0 8 -1q22 -3 36 -22l303 -381l285 367q14 18 37.5 20t42 -13t20.5 -38.5t-12 -42.5l-299 -385q203 -262 325 -473q8 -13 8 -28q0 -6 -2 -14q-6 -22 -26.5 -35t-43 -7t-34.5 27 q-115 194 -299 434l-346 -453q-16 -18 -40 -20h-6q-21 0 -36 13q-18 15 -20 39z" />
<glyph unicode="y" horiz-adv-x="870" d="M-111 -346.5q0 24.5 17.5 40t42.5 15.5q16 0 61 -3t64.5 -3t50.5 3t53 11q190 68 322 346q-10 4 -19 13q-63 72 -124.5 166t-102.5 170.5t-92 199.5t-74 183l-70 186q-8 23 1.5 44.5t32 29.5t44 -1.5t29.5 -31.5q55 -152 87 -231.5t88 -208.5t117.5 -228.5t131.5 -179.5 q29 76 56.5 171t40.5 148.5t40 170t31 131.5q6 33 19.5 76.5t20.5 76.5t11 68q2 25 22 39q17 12 37 12h5q24 -2 38 -21q13 -17 13 -36v-6q-4 -39 -13.5 -80t-21.5 -88l-21 -66q-2 -12 -28 -133l-41 -176q-14 -55 -44 -155.5t-61 -180.5q-164 -420 -438 -514 q-31 -12 -74 -17.5t-66.5 -5.5t-73.5 3t-56 3q-25 0 -40.5 17.5t-15.5 42z" />
<glyph unicode="z" horiz-adv-x="946" d="M39 119q4 18 16 45q18 35 58 90q23 33 106 137l244 307l145 191l31 43q-33 4 -88 6q-47 0 -117 -2q-76 -4 -82 -4h-254q-25 0 -41 16.5t-16 41t16 41t41 16.5h254q4 0 78 4q74 2 123 2q76 -2 123 -13q33 -6 53 -18q37 -23 45 -59q2 -16 -4 -33q-2 -8 -6 -15 q-6 -10 -14 -26l-50 -68l-147 -192l-244 -312q-68 -82 -104 -131q-20 -29 -35 -51q20 -2 49 -2q29 -1 66 -1q74 0 178 3q76 0 172 4l164 4q66 2 88 2q25 0 41 -16t16 -41t-16.5 -41t-40.5 -16q-23 0 -88 -2l-160 -4q-98 -4 -174 -5q-105 -3 -180 -3q-38 0 -68 1q-55 2 -86 5 q-20 2 -33 4q-27 6 -41 20q-20 20 -20 51q0 10 2 21z" />
<glyph unicode="{" horiz-adv-x="1916" d="M23 1390.5q0 12.5 8 22.5t20 10q119 8 195 -12q4 0 8 -2l45 -16q63 -29 145 -92.5t138 -137.5q70 -90 80 -172q4 -47 -11 -90q51 -35 90 -74q20 -23 -1 -44t-44 -1q-33 35 -75 66q-12 -14 -29 -29q-29 -27 -107 -53q-74 -27 -151 -37q-88 -14 -144 -2q-35 10 -55 31 q-25 27 -20 63q10 125 170 158q-14 154 -68 375q-61 14 -162 8q-12 0 -22 8t-10 20.5zM119 209q4 23 24 39q14 12 37 22q14 6 33 13q-16 131 -10 217q-23 -12 -39 -29q-20 -20 -42 1.5t1 43.5q37 35 92 57q12 18 33 15q2 -2 6 -2q78 20 149 8q80 -12 109 -62 q35 -57 -18 -133q-27 -37 -68 -73h25q90 -12 156.5 -79t95 -150t28.5 -167q0 -31 -30.5 -30.5t-30.5 30.5q0 117 -62.5 218.5t-165.5 115.5q-30 4 -120 -14l-15 -10l-22 -13l16 -112q12 -90 16 -148q0 -12 -8 -22.5t-20.5 -10.5t-22.5 8.5t-10 20.5q-2 49 -16 143l-15 93 q-12 -6 -32 -13q-2 0 -3.5 -1t-5.5 -3t-10 -6q-10 -6 -20 -6q-16 0 -26.5 12.5t-8.5 26.5zM176 817q-2 -12 4 -16q8 -8 25 -13q43 -12 121 0q70 10 141 35q63 25 84 41l16 17q-16 10 -32 16q-76 33 -185 29q2 -45 2 -86q0 -31 -30.5 -31t-30.5 31q0 39 -2 78 q-106 -25 -113 -101zM268 526q-12 -86 6 -225h2q11 4 21 6q102 66 147 129q29 41 15 66q-14 23 -66 33q-59 8 -125 -9zM285 1331q47 -199 61 -346q125 8 213 -31q19 -8 37 -20q6 25 4 51q-8 63 -65 139q-51 66 -122 123.5t-128 83.5zM733 987.5q-4 61.5 27 124.5q0 8 4 14 q27 49 72 70t89 14.5t83 -33t60.5 -66.5t15 -93t-47.5 -105q-68 -86 -145 -90q-72 -6 -119 58q-35 45 -39 106.5zM752 143q-45 164 0 318q2 12 13 18t23.5 3t18.5 -14.5t2 -23.5q-39 -137 0 -284q27 -100 59 -103q10 -2 26.5 12.5t31.5 47.5q39 63 38 166.5t-55 169.5 q-18 25 6.5 43t42.5 -7q43 -55 57.5 -132.5t4.5 -145.5t-39 -123q-49 -98 -117 -92q-76 6 -112 147zM795 1014.5q-4 -64.5 26 -96.5q27 -37 66 -33q49 2 100 65q43 61 35 105.5t-49 70.5q-66 45 -121 9l-4 -5q-49 -51 -53 -115.5zM1047 379q2 84 0 102q0 12 8 21.5t20 10.5 t21.5 -7.5t11.5 -20.5q2 -20 0 -108q0 -84 4 -135q6 -74 23 -117q18 -45 47 -53q35 -8 102 0q98 14 119 14q31 0 31 -30.5t-31 -30.5q-16 0 -111 -15q-80 -10 -127 4q-57 16 -88 88q-20 51 -26 136q-4 55 -4 141zM1128 1044q4 80 46 150q45 78 112 96q80 23 156 -53 q20 -23 0 -45q-6 -4 -12 -6v-2q2 -2 2 -4t1 -3t1 -3q0 -4 2 -11l4 -33v-20l22 -102q31 -143 37 -220q8 -129 -41 -188q-63 -76 -209 -35q-12 2 -18 13.5t-3 23.5t14 18.5t24 2.5q109 -29 145 16q33 41 27 145q-6 70 -35 201q-29 -47 -66 -78q-41 -31 -80 -35q-49 -4 -88 35 q-47 47 -41 137zM1190 1042q-4 -63 24 -90q18 -20 39 -18t45 22q51 39 74 101q6 18 6 47q-6 41 -6 65q0 4 2 11q4 10 15 16q2 2 4 2q-49 45 -93 33q-41 -10 -74.5 -67.5t-35.5 -121.5zM1395 479q0 12 8 22.5t20 10.5q33 2 136 23q90 18 145 18q31 0 31 -30.5t-31 -30.5 q-49 0 -133 -19q-76 -14 -105 -18q4 -25 9 -97q4 -63 4 -69q33 6 215 35q12 2 22 -6.5t12.5 -20.5t-6 -22.5t-20.5 -12.5l-219 -35v-6q8 -78 24.5 -121t38.5 -49q18 -4 42 -5t63 0t51 1q31 0 31 -30.5t-31 -30.5q-4 0 -47 -1t-72 0t-53 9q-53 12 -80 86q-18 47 -27 135 q-4 43 -10 139q-4 78 -10 99v8q-8 8 -8 18zM1524 1194q2 20 18 41q20 25 70 47q102 45 168 31q12 -4 19 -14.5t4 -22.5t-13.5 -19.5t-22.5 -5.5q-47 12 -131 -24q-35 -16 -47 -33q-2 -2 -4 -2q2 0 2 -2q4 -2 19 -8q18 -6 49 -13q18 -6 49 -12q29 -6 33 -8q104 -29 133 -68 q18 -27 8 -57q-6 -20 -31 -37q-35 -27 -98 -42t-117 -15q-31 0 -30.5 30.5t30.5 30.5q45 0 99.5 13.5t78.5 31.5q6 4 11 8q-16 23 -101 48q-4 0 -28 6q-35 6 -52 10q-33 8 -55 16q-31 10 -43 25q-18 20 -18 45zM1763 731q-2 12 5.5 23.5t19.5 13.5t23.5 -5.5t13.5 -19.5 q27 -141 51 -505q0 -12 -8 -22.5t-20.5 -10.5t-22.5 8t-10 20q-25 360 -52 498zM1821 67.5q0 30.5 30.5 30.5t30.5 -30.5t-30.5 -30.5t-30.5 30.5z" />
<glyph unicode="|" horiz-adv-x="262" d="M47 1403q0 25 16.5 41t41 16t41 -16t16.5 -41q0 -98 5 -200.5t13 -239.5l15 -199q4 -68 0 -180q-6 -121 -5 -168q2 -82 6.5 -224.5t7.5 -261t3 -223.5q0 -25 -16.5 -41t-41 -16t-41 16.5t-16.5 40.5q0 104 -3 222t-7 260.5t-6 222.5q-2 35 4 178q4 104 0 166l-14 202 q-8 139 -13.5 243t-5.5 202z" />
<glyph unicode="}" horiz-adv-x="1691" d="M90 1012q20 86 94 141t160 66h14q-23 43 -28 90q-12 88 37 141q80 86 168 111q90 23 161 -19q74 -39 108 -125t17 -194q-8 -51 -63 -142q250 -252 452 -479q106 104 209 113q106 10 172 -76q61 -72 55 -185.5t-83 -195.5q-100 -104 -222 -70l-41 15q-2 2 -8 5t-11 5t-9 2 v-6v-55q-8 -74 -48 -142.5t-110 -93.5q-104 -37 -182 6t-107 131q-27 68 -6 150t86 137q-82 82 -213 236q-143 168 -200 229q-57 -47 -131 -64.5t-138 0.5q-82 23 -121 93.5t-12 175.5zM160 995q-18 -78 6 -122t77.5 -58t116 4.5t107.5 63.5q0 2 2 2q25 25 49 0q2 0 2 -2 q68 -70 228 -258q141 -162 227 -248q16 -4 24 -19q6 -12 3 -27.5t-17 -23.5q-66 -37 -88.5 -102.5t-1.5 -126.5q20 -59 71.5 -87t123.5 -3q45 16 73.5 65t34.5 109v47v31v12v2v2v2q0 4 2 8q4 12 17 19q31 18 79 0q2 0 33 -13q20 -8 33 -12q78 -25 147 47q59 63 63.5 150.5 t-38.5 136.5q-43 53 -109 49q-84 -8 -182 -111q-2 -4 -4 -6q-4 -2 -6 -4q-12 -10 -27.5 -9t-23.5 11q-199 225 -488 514q-6 6 -8 17q-18 20 -6 43q8 12 22 37l21 34q8 12 15 31t10 35q14 88 -11.5 151.5t-74.5 90.5q-31 14 -68 16t-83 -21.5t-91 -70.5q-25 -29 -19 -82 q18 -98 37 -92l-2 4q2 -2 6 -4l4 -2q14 -6 21 -15q20 -20 8 -47q-12 -31 -45 -33q-16 -2 -39 5q-37 10 -39 10q-68 -8 -122 -49t-70 -101z" />
<glyph unicode="~" horiz-adv-x="1171" d="M38 638q-3 24 11 42q63 84 179 119t218 4q41 -12 105 -49q59 -33 86 -43q104 -41 213 -27q106 12 184 84q18 14 42 13t39 -18.5t14 -41t-17 -39.5q-72 -63 -161 -92t-177 -24t-178 38q-33 12 -100 49q-53 31 -82 39q-70 23 -152 -1.5t-123 -80.5q-14 -18 -37.5 -21 t-42 11t-21.5 38z" />
<glyph unicode="&#xad;" d="M14 506.5q2 23.5 19.5 40t42.5 14.5q72 -4 467 -4q25 0 41 -16.5t16 -41t-16.5 -41t-40.5 -16.5q-399 0 -475 4q-23 2 -39.5 19.5t-14.5 41z" />
<glyph unicode="&#x2000;" horiz-adv-x="835" />
<glyph unicode="&#x2001;" horiz-adv-x="1671" />
<glyph unicode="&#x2002;" horiz-adv-x="835" />
<glyph unicode="&#x2003;" horiz-adv-x="1671" />
<glyph unicode="&#x2004;" horiz-adv-x="557" />
<glyph unicode="&#x2005;" horiz-adv-x="417" />
<glyph unicode="&#x2006;" horiz-adv-x="278" />
<glyph unicode="&#x2007;" horiz-adv-x="278" />
<glyph unicode="&#x2008;" horiz-adv-x="208" />
<glyph unicode="&#x2009;" horiz-adv-x="334" />
<glyph unicode="&#x200a;" horiz-adv-x="92" />
<glyph unicode="&#x2010;" d="M14 506.5q2 23.5 19.5 40t42.5 14.5q72 -4 467 -4q25 0 41 -16.5t16 -41t-16.5 -41t-40.5 -16.5q-399 0 -475 4q-23 2 -39.5 19.5t-14.5 41z" />
<glyph unicode="&#x2011;" d="M14 506.5q2 23.5 19.5 40t42.5 14.5q72 -4 467 -4q25 0 41 -16.5t16 -41t-16.5 -41t-40.5 -16.5q-399 0 -475 4q-23 2 -39.5 19.5t-14.5 41z" />
<glyph unicode="&#x2012;" d="M14 506.5q2 23.5 19.5 40t42.5 14.5q72 -4 467 -4q25 0 41 -16.5t16 -41t-16.5 -41t-40.5 -16.5q-399 0 -475 4q-23 2 -39.5 19.5t-14.5 41z" />
<glyph unicode="&#x2013;" horiz-adv-x="1053" d="M13.5 506.5q3.5 23.5 34 40t74.5 14.5q125 -4 815 -4q44 0 72 -16.5t28 -41t-29 -41t-71 -16.5q-697 0 -829 4q-40 2 -69 19.5t-25.5 41z" />
<glyph unicode="&#x2014;" horiz-adv-x="2077" d="M14 506.5q7 23.5 68 40t148 14.5q252 -4 1632 -4q87 0 143 -16.5t56 -41t-57.5 -41t-141.5 -16.5q-1394 0 -1660 4q-80 2 -137.5 19.5t-50.5 41z" />
<glyph unicode="&#x2018;" horiz-adv-x="366" d="M55 1098q4 61 41 141q31 61 72 119.5t72 87.5q16 16 39.5 16t40 -17.5t16 -41t-18.5 -39.5q-20 -23 -56 -73t-60 -101q-12 -27 -21 -51h2q61 -27 84 -64q33 -53 -2 -100q-27 -33 -74 -38t-81 24q-61 47 -54 137zM178 1051v2v-2z" />
<glyph unicode="&#x2019;" horiz-adv-x="378" d="M29.5 1344.5q21.5 50.5 76.5 72.5q61 20 107.5 5t79.5 -58q57 -76 45 -172q-6 -39 -25.5 -76t-54.5 -69.5t-53 -47.5l-51 -41q-20 -12 -44 -9t-37.5 22.5t-10 43t21.5 38.5q63 45 99 81.5t40 73.5q2 11 0 25q-117 -61 -178 12q-37 49 -15.5 99.5z" />
<glyph unicode="&#x201c;" horiz-adv-x="698" d="M33 1036q-10 68 22 158q27 74 73 143.5t87 100.5q18 14 42 11t38 -21.5t11 -42t-21 -37.5q-25 -18 -60.5 -72t-58.5 -113q51 6 88 -14q61 -35 55 -113q-4 -61 -49 -102q-57 -53 -129 -27q-88 33 -98 129zM401 1124q4 90 54.5 179.5t138.5 138.5q23 12 45.5 6t33.5 -27.5 t5 -44t-27 -33.5q-84 -47 -119 -147q18 4 35 4q68 -4 103 -65q14 -33 16 -71t-20.5 -75t-67.5 -55q-98 -41 -158 37q-45 55 -39 153z" />
<glyph unicode="&#x201d;" horiz-adv-x="753" d="M-2 1315q10 55 65.5 88t120.5 14q63 -18 93 -71.5t34 -116.5q6 -123 -55 -203q-12 -16 -25.5 -29.5t-30 -26t-24.5 -17.5t-30.5 -16t-24.5 -13q-20 -12 -44 -6t-35 26.5t-5 44t26 33.5q8 6 23 14l23 13q6 2 15 8t15 11t13.5 12t13.5 16q29 38 31 108q-90 -23 -142 2 q-35 14 -50 45t-7 64zM100 1311h4q-2 2 -4 0zM368.5 957.5q8.5 21.5 28.5 31.5q94 45 150 113q41 47 45 96q-9 -6 -17 -8q-86 -27 -141 14q-53 41 -47 113q8 63 62 100q59 39 135 10q82 -31 114 -151q35 -129 -63 -248q-70 -86 -189 -141q-23 -10 -44 -2t-31.5 29.5t-2 43z " />
<glyph unicode="&#x202f;" horiz-adv-x="334" />
<glyph unicode="&#x205f;" horiz-adv-x="417" />
<glyph unicode="&#x25fc;" horiz-adv-x="1054" d="M0 0v1055h1055v-1055h-1055z" />
</font>
</defs>
</svg>
